<?xml version="1.0" encoding="UTF-8"?><svg id="_圖層_1" xmlns="http://www.w3.org/2000/svg" xmlns:xlink="http://www.w3.org/1999/xlink" viewBox="0 0 32 32"><defs><style>.cls-1{fill:#e52251;}.cls-1,.cls-2,.cls-3,.cls-4,.cls-5,.cls-6,.cls-7,.cls-8,.cls-9,.cls-10,.cls-11,.cls-12,.cls-13,.cls-14,.cls-15,.cls-16,.cls-17,.cls-18,.cls-19,.cls-20,.cls-21,.cls-22,.cls-23,.cls-24,.cls-25,.cls-26,.cls-27,.cls-28,.cls-29,.cls-30,.cls-31,.cls-32,.cls-33,.cls-34,.cls-35,.cls-36,.cls-37,.cls-38,.cls-39,.cls-40,.cls-41,.cls-42,.cls-43,.cls-44,.cls-45,.cls-46,.cls-47,.cls-48,.cls-49,.cls-50,.cls-51,.cls-52,.cls-53,.cls-54,.cls-55,.cls-56,.cls-57,.cls-58,.cls-59,.cls-60,.cls-61,.cls-62,.cls-63,.cls-64,.cls-65,.cls-66,.cls-67,.cls-68,.cls-69,.cls-70,.cls-71,.cls-72,.cls-73,.cls-74,.cls-75,.cls-76,.cls-77,.cls-78,.cls-79,.cls-80,.cls-81,.cls-82,.cls-83,.cls-84,.cls-85,.cls-86,.cls-87,.cls-88,.cls-89,.cls-90,.cls-91,.cls-92,.cls-93,.cls-94,.cls-95,.cls-96,.cls-97,.cls-98,.cls-99,.cls-100,.cls-101,.cls-102,.cls-103,.cls-104,.cls-105,.cls-106,.cls-107,.cls-108,.cls-109,.cls-110,.cls-111,.cls-112,.cls-113,.cls-114,.cls-115,.cls-116,.cls-117,.cls-118,.cls-119,.cls-120,.cls-121,.cls-122,.cls-123,.cls-124,.cls-125,.cls-126,.cls-127,.cls-128,.cls-129,.cls-130,.cls-131,.cls-132,.cls-133,.cls-134,.cls-135{fill-rule:evenodd;}.cls-2{fill:#be079a;}.cls-3{fill:#f1332f;}.cls-4{fill:#90c;}.cls-5{fill:#fc4c0c;}.cls-6{fill:#ee2f36;}.cls-7{fill:#ffa800;}.cls-8{fill:#a601bc;}.cls-9{fill:#fb4a0e;}.cls-10{fill:#de1a64;}.cls-11{fill:#b304ab;}.cls-12{fill:#f84119;}.cls-13{fill:#f3362a;}.cls-14{fill:#f73f1b;}.cls-15{fill:#e6234f;}.cls-16{fill:#9a00ca;}.cls-17{fill:#f2342c;}.cls-18{fill:#9c00c9;}.cls-19{fill:#ffc500;}.cls-20{fill:#ff6200;}.cls-21{fill:#ad03b2;}.cls-22{fill:#ff8900;}.cls-23{fill:#ffb000;}.cls-24{fill:#dc1868;}.cls-25{fill:#ed2c3c;}.cls-26{fill:#e21e5a;}.cls-27{fill:#ff7200;}.cls-28{fill:#fe5b02;}.cls-29{fill:#f33727;}.cls-30{fill:#f90;}.cls-31{fill:#ff6500;}.cls-32{fill:#9d00c7;}.cls-33{fill:#f94414;}.cls-34{fill:#ff9500;}.cls-35{fill:#cf0e80;}.cls-36{fill:#b103ad;}.cls-37{fill:#a201c0;}.cls-38{fill:#fff;}.cls-39{fill:#f53a22;}.cls-40{fill:#f63e1d;}.cls-41{fill:#c40892;}.cls-42{fill:#ff9d00;}.cls-43{fill:#ffb700;}.cls-44{fill:#e42154;}.cls-45{fill:#ffd400;}.cls-46{fill:#dd1966;}.cls-47{fill:#af03b0;}.cls-48{fill:#fe5604;}.cls-49{fill:#ffdf00;}.cls-50{fill:#ff7900;}.cls-51{fill:#f03231;}.cls-52{fill:#b504a8;}.cls-53{fill:#9f01c5;}.cls-54{fill:#9e00c5;}.cls-55{fill:#ffa400;}.cls-56{fill:#db176b;}.cls-57{fill:#e92748;}.cls-58{fill:#e31f58;}.cls-59{fill:#bc069e;}.cls-60{fill:#e7244d;}.cls-61{fill:#da166d;}.cls-62{fill:#ee2e39;}.cls-63{fill:#ff8500;}.cls-64{fill:#ff7d00;}.cls-65{fill:#fc4e0a;}.cls-66{fill:#b705a5;}.cls-67{fill:#df1c60;}.cls-68{fill:#fa4612;}.cls-69{fill:#ffc800;}.cls-70{fill:#c10897;}.cls-71{fill:gold;}.cls-72{fill:#fe5903;}.cls-73{fill:#ff6e00;}.cls-74{fill:#e42056;}.cls-75{fill:#ffd100;}.cls-76{fill:#ec2b3e;}.cls-136{clip-rule:evenodd;fill:none;}.cls-77{fill:#ff6b00;}.cls-78{fill:#ea2943;}.cls-79{fill:#ffbe00;}.cls-80{fill:#df1b62;}.cls-81{fill:#ff8d00;}.cls-82{fill:#fd5009;}.cls-83{fill:#a401bd;}.cls-84{fill:#9b00c9;}.cls-85{fill:#ff9100;}.cls-86{fill:#f43925;}.cls-87{fill:#d2107b;}.cls-88{fill:#d81471;}.cls-89{fill:#ffb400;}.cls-90{fill:#fd5207;}.cls-91{fill:#cd0c85;}.cls-92{fill:#e92845;}.cls-93{fill:#eb2a41;}.cls-94{fill:#a001c4;}.cls-95{fill:#d51276;}.cls-96{fill:#a001c3;}.cls-97{fill:#fb0;}.cls-98{fill:#ff8100;}.cls-99{fill:#a101c1;}.cls-100{fill:#a702ba;}.cls-101{fill:#a301bf;}.cls-102{fill:#d91570;}.cls-103{fill:#9c00c8;}.cls-104{fill:#9a00cb;}.cls-105{fill:#fa4810;}.cls-106{fill:#ffdc00;}.cls-107{fill:#ffcb00;}.cls-108{fill:#ffc200;}.cls-109{fill:#9b00ca;}.cls-110{fill:#a802b8;}.cls-111{fill:#e11e5c;}.cls-112{fill:#dc1869;}.cls-113{fill:#ca0b8a;}.cls-114{fill:#ffac00;}.cls-115{fill:#fd5406;}.cls-116{fill:#ffce00;}.cls-117{fill:#c70a8e;}.cls-118{fill:#e8254a;}.cls-119{fill:#aa02b7;}.cls-120{fill:#ab02b4;}.cls-121{fill:#f84316;}.cls-122{fill:#ffe100;}.cls-123{fill:#ff6800;}.cls-124{fill:#ff6001;}.cls-137{clip-path:url(#clippath);}.cls-125{fill:#ef3034;}.cls-126{fill:#ff7500;}.cls-127{fill:#d9156e;}.cls-128{fill:#ffa100;}.cls-129{fill:#9e00c6;}.cls-130{fill:#ffda00;}.cls-131{fill:#b905a1;}.cls-132{fill:#f63c20;}.cls-133{fill:#e01d5e;}.cls-134{fill:#ffe300;}.cls-135{fill:#ff5d01;}</style><clipPath id="clippath"><path class="cls-136" d="M15.82,10.46c2.99-.15,5.61,2.36,5.74,5.34.13,3.2-2.44,5.78-5.6,5.76-2.86-.02-5.39-2.26-5.51-5.36-.11-3.14,2.38-5.59,5.37-5.74h0ZM21.53,8.97c1.59-.39,2.25,2.16.52,2.53-1.63.35-2.28-2.11-.52-2.53h0ZM11.09,7.12c-2.81.3-4.14,2.67-3.97,4.95-.01,1.23-.09,7.71.02,8.84.18,1.79,1.31,3.1,2.96,3.71.71.31,1.09.26,1.95.27,2.95.03,5.93.02,8.87-.03,1.3-.02,2.63-1.1,3.16-1.84.83-1.17.83-1.63.82-3.07.01-2.56.02-5.13.04-7.69.23-2.95-1.59-5.43-4.97-5.18-.82,0-8.25-.04-8.87.03h0ZM21.17,26.81c-2.57.01-7.46.02-9.95.03-3.21-.25-5.85-2.49-6.05-5.75,0-2.59,0-6.54.04-10.44.22-2.88,2.9-5.42,5.77-5.49,2.63,0,7.33.03,10.4.03,2.98.17,5.49,3.21,5.46,5.93,0,3.14,0,6.96,0,9.77-.12,2.98-2.66,5.76-5.67,5.91h0ZM32,16c0,8.87-7.26,15.88-16,16C8.3,32.02.13,25.96,0,16,.23,6.47,7.49.05,16.14,0c7.97-.04,15.81,6.36,15.86,16h0ZM19.58,16.43c.23-2.11-1.32-3.79-3.13-4-1.96-.24-3.77,1.13-4.02,3.15-.27,2.13,1.32,3.79,3.16,4.01,2.11.25,3.79-1.33,4-3.16h0Z"/></clipPath></defs><g class="cls-137"><path class="cls-134" d="M3.17,32.13c4.17-.02,7.56,3.35,7.58,7.52.02,4.17-3.35,7.56-7.52,7.58-4.17.02-7.56-3.35-7.58-7.52-.02-4.17,3.35-7.56,7.52-7.58h0ZM3.17,31.69c-4.41.02-7.97,3.61-7.95,8.02.02,4.41,3.61,7.97,8.02,7.95,4.41-.02,7.97-3.61,7.95-8.02-.02-4.41-3.61-7.97-8.02-7.95h0Z"/><path class="cls-122" d="M3.17,31.84c4.33-.02,7.86,3.48,7.87,7.81.02,4.33-3.48,7.86-7.81,7.87-4.33.02-7.86-3.48-7.87-7.81-.02-4.33,3.48-7.86,7.81-7.87h0ZM3.16,31.4c-4.57.02-8.26,3.74-8.24,8.31.02,4.57,3.74,8.26,8.31,8.24,4.57-.02,8.26-3.74,8.24-8.31-.02-4.57-3.74-8.26-8.31-8.24h0Z"/><path class="cls-49" d="M3.16,31.55c4.49-.02,8.15,3.6,8.17,8.1.02,4.49-3.6,8.15-8.1,8.17-4.49.02-8.15-3.6-8.17-8.1-.02-4.49,3.6-8.15,8.1-8.17h0ZM3.16,31.11c-4.73.02-8.55,3.87-8.53,8.6.02,4.73,3.87,8.55,8.6,8.53,4.73-.02,8.55-3.87,8.53-8.6-.02-4.73-3.87-8.55-8.6-8.53h0Z"/><path class="cls-106" d="M3.16,31.26c4.65-.02,8.44,3.73,8.46,8.38.02,4.65-3.73,8.44-8.38,8.46-4.65.02-8.44-3.73-8.46-8.38-.02-4.65,3.73-8.44,8.38-8.46h0ZM3.16,30.82c-4.89.02-8.84,4-8.82,8.89.02,4.89,4,8.84,8.89,8.82,4.89-.02,8.84-4,8.82-8.89-.02-4.89-4-8.84-8.89-8.82h0Z"/><path class="cls-130" d="M3.16,30.97c4.81-.02,8.73,3.86,8.75,8.67s-3.86,8.73-8.67,8.75c-4.81.02-8.73-3.86-8.75-8.67-.02-4.81,3.86-8.73,8.67-8.75h0ZM3.16,30.53c-5.05.02-9.13,4.13-9.11,9.19.02,5.05,4.13,9.13,9.19,9.11,5.05-.02,9.13-4.13,9.11-9.19-.02-5.05-4.13-9.13-9.19-9.11h0Z"/><path class="cls-71" d="M3.16,30.68c4.97-.02,9.02,3.99,9.04,8.96.02,4.97-3.99,9.02-8.96,9.04-4.97.02-9.02-3.99-9.04-8.96-.02-4.97,3.99-9.02,8.96-9.04h0ZM3.16,30.24c-5.21.02-9.42,4.27-9.4,9.48.02,5.21,4.27,9.42,9.48,9.4,5.21-.02,9.42-4.27,9.4-9.48-.02-5.21-4.27-9.42-9.48-9.4h0Z"/><path class="cls-45" d="M3.16,30.39c5.13-.02,9.31,4.12,9.33,9.25.02,5.13-4.12,9.31-9.25,9.33-5.13.02-9.31-4.12-9.33-9.25-.02-5.13,4.12-9.31,9.25-9.33h0ZM3.16,29.95c-5.37.02-9.71,4.4-9.69,9.77.02,5.37,4.4,9.71,9.77,9.69,5.37-.02,9.71-4.4,9.69-9.77-.02-5.37-4.4-9.71-9.77-9.69h0Z"/><path class="cls-75" d="M3.16,30.1c5.29-.02,9.6,4.25,9.62,9.54.02,5.29-4.25,9.6-9.54,9.62-5.29.02-9.6-4.25-9.62-9.54-.02-5.29,4.25-9.6,9.54-9.62h0ZM3.16,29.66c-5.53.02-10,4.53-9.97,10.06.02,5.53,4.53,10,10.06,9.97,5.53-.02,10-4.53,9.97-10.06-.02-5.53-4.53-10-10.06-9.97h0Z"/><path class="cls-116" d="M3.16,29.81c5.45-.02,9.89,4.38,9.92,9.83.02,5.45-4.38,9.89-9.83,9.92-5.45.02-9.89-4.38-9.92-9.83-.02-5.45,4.38-9.89,9.83-9.92h0ZM3.16,29.37c-5.69.02-10.29,4.66-10.26,10.35.02,5.69,4.66,10.29,10.35,10.26,5.69-.02,10.29-4.66,10.26-10.35-.02-5.69-4.66-10.29-10.35-10.26h0Z"/><path class="cls-107" d="M3.16,29.52c5.61-.02,10.18,4.51,10.21,10.12.02,5.61-4.51,10.18-10.12,10.21-5.61.02-10.18-4.51-10.21-10.12-.02-5.61,4.51-10.18,10.12-10.21h0ZM3.15,29.08c-5.85.03-10.58,4.79-10.55,10.64.03,5.85,4.79,10.58,10.64,10.55,5.85-.03,10.58-4.79,10.55-10.64-.03-5.85-4.79-10.58-10.64-10.55h0Z"/><path class="cls-69" d="M3.15,29.23c5.77-.03,10.47,4.63,10.5,10.41.03,5.77-4.63,10.47-10.41,10.5-5.77.03-10.47-4.63-10.5-10.41-.03-5.77,4.63-10.47,10.41-10.5h0ZM3.15,28.79c-6.01.03-10.87,4.92-10.84,10.94.03,6.01,4.92,10.87,10.94,10.84,6.01-.03,10.87-4.92,10.84-10.94-.03-6.01-4.92-10.87-10.94-10.84h0Z"/><path class="cls-19" d="M3.15,28.94c5.93-.03,10.76,4.76,10.79,10.7.03,5.93-4.76,10.76-10.7,10.79-5.93.03-10.76-4.76-10.79-10.7-.03-5.93,4.76-10.76,10.7-10.79h0ZM3.15,28.5c-6.17.03-11.16,5.05-11.13,11.23.03,6.17,5.05,11.16,11.23,11.13,6.17-.03,11.16-5.05,11.13-11.23-.03-6.17-5.05-11.16-11.23-11.13h0Z"/><path class="cls-108" d="M3.15,28.65c6.09-.03,11.06,4.89,11.08,10.99.03,6.09-4.89,11.06-10.99,11.08-6.09.03-11.06-4.89-11.08-10.99-.03-6.09,4.89-11.06,10.99-11.08h0ZM3.15,28.21c-6.33.03-11.45,5.19-11.42,11.52.03,6.33,5.18,11.45,11.52,11.42,6.33-.03,11.45-5.18,11.42-11.52-.03-6.33-5.19-11.45-11.52-11.42h0Z"/><path class="cls-79" d="M3.15,28.36c6.25-.03,11.35,5.02,11.37,11.28.03,6.25-5.02,11.35-11.28,11.37-6.25.03-11.35-5.02-11.37-11.28-.03-6.25,5.02-11.35,11.28-11.37h0ZM3.15,27.92c-6.49.03-11.74,5.32-11.71,11.81.03,6.49,5.32,11.74,11.81,11.71,6.49-.03,11.74-5.32,11.71-11.81-.03-6.49-5.32-11.74-11.81-11.71h0Z"/><path class="cls-97" d="M3.15,28.06c6.41-.03,11.64,5.15,11.67,11.56.03,6.41-5.15,11.64-11.56,11.67-6.41.03-11.64-5.15-11.67-11.56-.03-6.41,5.15-11.64,11.56-11.67h0ZM3.15,27.63c-6.66.03-12.03,5.45-12,12.1.03,6.66,5.45,12.03,12.1,12s12.03-5.45,12-12.1c-.03-6.66-5.45-12.03-12.1-12h0Z"/><path class="cls-43" d="M3.15,27.77c6.58-.03,11.93,5.28,11.96,11.85.03,6.58-5.28,11.93-11.85,11.96-6.58.03-11.93-5.28-11.96-11.85-.03-6.58,5.28-11.93,11.85-11.96h0ZM3.15,27.34c-6.82.03-12.32,5.58-12.29,12.39.03,6.82,5.58,12.32,12.39,12.29,6.82-.03,12.32-5.58,12.29-12.39-.03-6.82-5.58-12.32-12.39-12.29h0Z"/><path class="cls-89" d="M3.15,27.48c6.74-.03,12.22,5.41,12.25,12.14s-5.41,12.22-12.14,12.25c-6.74.03-12.22-5.41-12.25-12.14-.03-6.74,5.41-12.22,12.14-12.25h0ZM3.15,27.05c-6.98.03-12.61,5.71-12.58,12.69.03,6.98,5.71,12.61,12.69,12.58,6.98-.03,12.61-5.71,12.58-12.69-.03-6.98-5.71-12.61-12.69-12.58h0Z"/><path class="cls-23" d="M3.15,27.19c6.9-.03,12.51,5.54,12.54,12.43.03,6.9-5.54,12.51-12.43,12.54-6.9.03-12.51-5.54-12.54-12.43-.03-6.9,5.54-12.51,12.43-12.54h0ZM3.14,26.76c-7.14.03-12.9,5.84-12.87,12.98.03,7.14,5.84,12.9,12.98,12.87,7.14-.03,12.9-5.84,12.87-12.98-.03-7.14-5.84-12.9-12.98-12.87h0Z"/><path class="cls-114" d="M3.14,26.9c7.06-.03,12.8,5.66,12.83,12.72.03,7.06-5.66,12.8-12.72,12.83-7.06.03-12.8-5.66-12.83-12.72-.03-7.06,5.66-12.8,12.72-12.83h0ZM3.14,26.47c-7.3.03-13.19,5.97-13.15,13.27.03,7.3,5.97,13.19,13.27,13.15,7.3-.03,13.19-5.97,13.15-13.27-.03-7.3-5.97-13.19-13.27-13.15h0Z"/><path class="cls-7" d="M3.14,26.61c7.22-.03,13.09,5.79,13.12,13.01.03,7.22-5.79,13.09-13.01,13.12-7.22.03-13.09-5.79-13.12-13.01-.03-7.22,5.79-13.09,13.01-13.12h0ZM3.14,26.18c-7.46.03-13.48,6.1-13.44,13.56.03,7.46,6.1,13.48,13.56,13.44,7.46-.03,13.48-6.1,13.44-13.56-.03-7.46-6.1-13.48-13.56-13.44h0Z"/><path class="cls-55" d="M3.14,26.32c7.38-.03,13.38,5.92,13.42,13.3.03,7.38-5.92,13.38-13.3,13.42-7.38.03-13.38-5.92-13.42-13.3-.03-7.38,5.92-13.38,13.3-13.42h0ZM3.14,25.89c-7.62.03-13.77,6.24-13.73,13.85.03,7.62,6.24,13.77,13.85,13.73,7.62-.03,13.77-6.24,13.73-13.85-.03-7.62-6.24-13.77-13.85-13.73h0Z"/><path class="cls-128" d="M3.14,26.03c7.54-.03,13.67,6.05,13.71,13.59.03,7.54-6.05,13.67-13.59,13.71-7.54.03-13.67-6.05-13.71-13.59-.03-7.54,6.05-13.67,13.59-13.71h0ZM3.14,25.6c-7.78.03-14.06,6.37-14.02,14.14.03,7.78,6.37,14.06,14.14,14.02,7.78-.03,14.06-6.37,14.02-14.14-.03-7.78-6.37-14.06-14.14-14.02h0Z"/><path class="cls-42" d="M3.14,25.74c7.7-.03,13.97,6.18,14,13.88.03,7.7-6.18,13.96-13.88,14-7.7.03-13.97-6.18-14-13.88-.03-7.7,6.18-13.97,13.88-14h0ZM3.14,25.31c-7.94.03-14.35,6.5-14.31,14.44.03,7.94,6.5,14.35,14.44,14.31,7.94-.03,14.35-6.5,14.31-14.44-.03-7.94-6.5-14.35-14.44-14.31h0Z"/><path class="cls-30" d="M3.14,25.45c7.86-.03,14.26,6.31,14.29,14.17.03,7.86-6.31,14.26-14.17,14.29-7.86.03-14.26-6.31-14.29-14.17-.03-7.86,6.31-14.26,14.17-14.29h0ZM3.14,25.02c-8.1.04-14.64,6.63-14.6,14.73.04,8.1,6.63,14.64,14.73,14.6,8.1-.04,14.64-6.63,14.6-14.73-.04-8.1-6.63-14.64-14.73-14.6h0Z"/><path class="cls-34" d="M3.14,25.16c8.02-.03,14.55,6.44,14.58,14.46.03,8.02-6.44,14.55-14.46,14.58s-14.55-6.44-14.58-14.46c-.03-8.02,6.44-14.55,14.46-14.58h0ZM3.14,24.73c-8.26.04-14.93,6.76-14.89,15.02.04,8.26,6.76,14.93,15.02,14.89,8.26-.04,14.93-6.76,14.89-15.02-.04-8.26-6.76-14.93-15.02-14.89h0Z"/><path class="cls-85" d="M3.14,24.87c8.18-.04,14.84,6.57,14.87,14.74.04,8.18-6.57,14.84-14.74,14.87-8.18.04-14.84-6.57-14.87-14.74-.04-8.18,6.57-14.84,14.74-14.87h0ZM3.13,24.44c-8.42.04-15.22,6.89-15.18,15.31.04,8.42,6.89,15.22,15.31,15.18,8.42-.04,15.22-6.89,15.18-15.31-.04-8.42-6.89-15.22-15.31-15.18h0Z"/><path class="cls-81" d="M3.13,24.58c8.34-.04,15.13,6.69,15.16,15.03.04,8.34-6.69,15.13-15.03,15.16-8.34.04-15.13-6.69-15.16-15.03-.04-8.34,6.69-15.13,15.03-15.16h0ZM3.13,24.14c-8.58.04-15.5,7.02-15.47,15.6.04,8.58,7.02,15.5,15.6,15.47,8.58-.04,15.5-7.02,15.47-15.6-.04-8.58-7.02-15.5-15.6-15.47h0Z"/><path class="cls-22" d="M3.13,24.29c8.5-.04,15.42,6.82,15.46,15.32.04,8.5-6.82,15.42-15.32,15.46-8.5.04-15.42-6.82-15.46-15.32-.04-8.5,6.82-15.42,15.32-15.46h0ZM3.13,23.85c-8.74.04-15.79,7.15-15.76,15.89.04,8.74,7.15,15.79,15.89,15.76,8.74-.04,15.79-7.15,15.76-15.89-.04-8.74-7.15-15.79-15.89-15.76h0Z"/><path class="cls-63" d="M3.13,24c8.66-.04,15.71,6.95,15.75,15.61.04,8.66-6.95,15.71-15.61,15.75-8.66.04-15.71-6.95-15.75-15.61-.04-8.66,6.95-15.71,15.61-15.75h0ZM3.13,23.56c-8.9.04-16.08,7.29-16.05,16.19.04,8.9,7.29,16.08,16.19,16.05,8.9-.04,16.08-7.29,16.05-16.19-.04-8.9-7.29-16.08-16.19-16.05h0Z"/><path class="cls-98" d="M3.13,23.71c8.82-.04,16,7.08,16.04,15.9.04,8.82-7.08,16-15.9,16.04-8.82.04-16-7.08-16.04-15.9-.04-8.82,7.08-16,15.9-16.04h0ZM3.13,23.27c-9.06.04-16.37,7.42-16.33,16.48.04,9.06,7.42,16.37,16.48,16.33,9.06-.04,16.37-7.42,16.33-16.48-.04-9.06-7.42-16.37-16.48-16.33h0Z"/><path class="cls-64" d="M3.13,23.42c8.98-.04,16.29,7.21,16.33,16.19.04,8.98-7.21,16.29-16.19,16.33s-16.29-7.21-16.33-16.19c-.04-8.98,7.21-16.29,16.19-16.33h0ZM3.13,22.98c-9.22.04-16.66,7.55-16.62,16.77.04,9.22,7.55,16.66,16.77,16.62,9.22-.04,16.66-7.55,16.62-16.77-.04-9.22-7.55-16.66-16.77-16.62h0Z"/><path class="cls-50" d="M3.13,23.13c9.14-.04,16.58,7.34,16.62,16.48.04,9.14-7.34,16.58-16.48,16.62-9.14.04-16.58-7.34-16.62-16.48-.04-9.14,7.34-16.58,16.48-16.62h0ZM3.13,22.69c-9.38.04-16.95,7.68-16.91,17.06.04,9.38,7.68,16.95,17.06,16.91,9.38-.04,16.95-7.68,16.91-17.06-.04-9.38-7.68-16.95-17.06-16.91h0Z"/><path class="cls-126" d="M3.13,22.84c9.3-.04,16.87,7.47,16.91,16.77.04,9.3-7.47,16.87-16.77,16.91-9.3.04-16.87-7.47-16.91-16.77-.04-9.3,7.47-16.87,16.77-16.91h0ZM3.13,22.4c-9.54.04-17.24,7.81-17.2,17.35.04,9.54,7.81,17.24,17.35,17.2,9.54-.04,17.24-7.81,17.2-17.35-.04-9.54-7.81-17.24-17.35-17.2h0Z"/><path class="cls-27" d="M3.13,22.55c9.46-.04,17.17,7.6,17.21,17.06.04,9.46-7.6,17.17-17.06,17.21-9.46.04-17.17-7.6-17.21-17.06-.04-9.46,7.6-17.17,17.06-17.21h0ZM3.12,22.11c-9.7.04-17.53,7.94-17.49,17.64.04,9.7,7.94,17.53,17.64,17.49,9.7-.04,17.53-7.94,17.49-17.64-.04-9.7-7.94-17.53-17.64-17.49h0Z"/><path class="cls-73" d="M3.12,22.26c9.62-.04,17.46,7.72,17.5,17.35.04,9.62-7.72,17.46-17.35,17.5-9.62.04-17.46-7.72-17.5-17.35-.04-9.62,7.72-17.46,17.35-17.5h0ZM3.12,21.82c-9.86.04-17.82,8.07-17.78,17.94.04,9.86,8.07,17.82,17.94,17.78,9.86-.04,17.82-8.07,17.78-17.94-.04-9.86-8.07-17.82-17.94-17.78h0Z"/><path class="cls-77" d="M3.12,21.97c9.78-.04,17.75,7.85,17.79,17.64.04,9.78-7.85,17.75-17.64,17.79-9.78.04-17.75-7.85-17.79-17.64-.04-9.78,7.85-17.75,17.64-17.79h0ZM3.12,21.53c-10.02.04-18.11,8.2-18.07,18.23.04,10.02,8.2,18.11,18.23,18.07,10.02-.04,18.11-8.2,18.07-18.23-.04-10.02-8.2-18.11-18.23-18.07h0Z"/><path class="cls-123" d="M3.12,21.68c9.94-.04,18.04,7.98,18.08,17.93.04,9.94-7.98,18.04-17.93,18.08-9.94.04-18.04-7.98-18.08-17.93-.04-9.94,7.98-18.04,17.93-18.08h0ZM3.12,21.24c-10.18.04-18.4,8.34-18.36,18.52.04,10.18,8.34,18.4,18.52,18.36,10.18-.04,18.4-8.34,18.36-18.52-.04-10.18-8.34-18.4-18.52-18.36h0Z"/><path class="cls-31" d="M3.12,21.39c10.1-.04,18.33,8.11,18.37,18.21.04,10.1-8.11,18.33-18.21,18.37-10.1.04-18.33-8.11-18.37-18.21-.04-10.1,8.11-18.33,18.21-18.37h0ZM3.12,20.95c-10.34.04-18.69,8.47-18.65,18.81.04,10.34,8.47,18.69,18.81,18.65,10.34-.04,18.69-8.47,18.65-18.81-.04-10.34-8.47-18.69-18.81-18.65h0Z"/><path class="cls-20" d="M3.12,21.1c10.26-.04,18.62,8.24,18.66,18.5.04,10.26-8.24,18.62-18.5,18.66-10.26.04-18.62-8.24-18.66-18.5-.04-10.26,8.24-18.62,18.5-18.66h0ZM3.12,20.66c-10.5.05-18.98,8.6-18.94,19.1.05,10.5,8.6,18.98,19.1,18.94,10.5-.05,18.98-8.6,18.94-19.1S13.62,20.61,3.12,20.66h0Z"/><path class="cls-124" d="M3.12,20.81c10.42-.05,18.91,8.37,18.96,18.79.05,10.42-8.37,18.91-18.79,18.96-10.42.05-18.91-8.37-18.96-18.79-.05-10.42,8.37-18.91,18.79-18.96h0ZM3.12,20.37c-10.66.05-19.27,8.73-19.23,19.39.05,10.66,8.73,19.27,19.39,19.23,10.66-.05,19.27-8.73,19.23-19.39-.05-10.66-8.73-19.27-19.39-19.23h0Z"/><path class="cls-135" d="M3.12,20.52c10.58-.05,19.2,8.5,19.25,19.08.05,10.58-8.5,19.2-19.08,19.25-10.58.05-19.2-8.5-19.25-19.08-.05-10.58,8.5-19.2,19.08-19.25h0ZM3.11,20.08c-10.82.05-19.56,8.86-19.52,19.69.05,10.82,8.86,19.56,19.69,19.52,10.82-.05,19.56-8.86,19.52-19.69-.05-10.82-8.86-19.56-19.69-19.52h0Z"/><path class="cls-28" d="M3.12,20.22c10.74-.05,19.49,8.63,19.54,19.37.05,10.74-8.63,19.49-19.37,19.54-10.74.05-19.49-8.63-19.54-19.37-.05-10.74,8.63-19.49,19.37-19.54h0ZM3.11,19.79c-10.99.05-19.85,8.99-19.8,19.98.05,10.99,8.99,19.85,19.98,19.8,10.99-.05,19.85-8.99,19.8-19.98-.05-10.99-8.99-19.85-19.98-19.8h0Z"/><path class="cls-72" d="M3.11,19.93c10.91-.05,19.78,8.75,19.83,19.66.05,10.91-8.75,19.78-19.66,19.83-10.91.05-19.78-8.75-19.83-19.66-.05-10.91,8.75-19.78,19.66-19.83h0ZM3.11,19.5c-11.15.05-20.14,9.12-20.09,20.27.05,11.15,9.12,20.14,20.27,20.09,11.15-.05,20.14-9.12,20.09-20.27-.05-11.15-9.12-20.14-20.27-20.09h0Z"/><path class="cls-48" d="M3.11,19.64c11.07-.05,20.07,8.88,20.12,19.95.05,11.07-8.88,20.07-19.95,20.12-11.07.05-20.07-8.88-20.12-19.95-.05-11.07,8.88-20.07,19.95-20.12h0ZM3.11,19.21c-11.31.05-20.43,9.25-20.38,20.56.05,11.31,9.25,20.43,20.56,20.38,11.31-.05,20.43-9.25,20.38-20.56-.05-11.31-9.25-20.43-20.56-20.38h0Z"/><path class="cls-115" d="M3.11,19.35c11.23-.05,20.37,9.01,20.41,20.24.05,11.23-9.01,20.37-20.24,20.41-11.23.05-20.37-9.01-20.41-20.24-.05-11.23,9.01-20.37,20.24-20.41h0ZM3.11,18.92c-11.47.05-20.72,9.39-20.67,20.85.05,11.47,9.39,20.72,20.85,20.67,11.47-.05,20.72-9.39,20.67-20.85-.05-11.47-9.39-20.72-20.85-20.67h0Z"/><path class="cls-90" d="M3.11,19.06c11.39-.05,20.66,9.14,20.71,20.53.05,11.39-9.14,20.66-20.53,20.71-11.39.05-20.66-9.14-20.71-20.53-.05-11.39,9.14-20.66,20.53-20.71h0ZM3.11,18.63c-11.63.05-21.01,9.52-20.96,21.14.05,11.63,9.52,21.01,21.14,20.96,11.63-.05,21.01-9.52,20.96-21.14-.05-11.63-9.52-21.01-21.14-20.96h0Z"/><path class="cls-82" d="M3.11,18.77c11.55-.05,20.95,9.27,21,20.82.05,11.55-9.27,20.95-20.82,21-11.55.05-20.95-9.27-21-20.82-.05-11.55,9.27-20.95,20.82-21h0ZM3.11,18.34c-11.79.05-21.3,9.65-21.25,21.44.05,11.79,9.65,21.3,21.44,21.25,11.79-.05,21.3-9.65,21.25-21.44-.05-11.79-9.65-21.3-21.44-21.25h0Z"/><path class="cls-65" d="M3.11,18.48c11.71-.05,21.24,9.4,21.29,21.11.05,11.71-9.4,21.24-21.11,21.29-11.71.05-21.24-9.4-21.29-21.11S-8.6,18.53,3.11,18.48h0ZM3.11,18.05c-11.95.05-21.59,9.78-21.54,21.73.05,11.95,9.78,21.59,21.73,21.54,11.95-.05,21.59-9.78,21.54-21.73-.05-11.95-9.78-21.59-21.73-21.54h0Z"/><path class="cls-5" d="M3.11,18.19c11.87-.05,21.53,9.53,21.58,21.39.05,11.87-9.53,21.53-21.39,21.58-11.87.05-21.53-9.53-21.58-21.39S-8.76,18.24,3.11,18.19h0ZM3.1,17.76c-12.11.05-21.88,9.91-21.83,22.02.05,12.11,9.91,21.88,22.02,21.83,12.11-.05,21.88-9.91,21.83-22.02-.05-12.11-9.91-21.88-22.02-21.83h0Z"/><path class="cls-9" d="M3.11,17.9c12.03-.05,21.82,9.66,21.87,21.68.05,12.03-9.66,21.82-21.68,21.87-12.03.05-21.82-9.66-21.87-21.68-.05-12.03,9.66-21.82,21.68-21.87h0ZM3.1,17.47c-12.27.05-22.17,10.04-22.12,22.31.05,12.27,10.04,22.17,22.31,22.12,12.27-.05,22.17-10.04,22.12-22.31-.05-12.27-10.04-22.17-22.31-22.12h0Z"/><path class="cls-105" d="M3.1,17.61c12.19-.05,22.11,9.78,22.16,21.97.05,12.19-9.78,22.11-21.97,22.16-12.19.05-22.11-9.78-22.16-21.97-.05-12.19,9.78-22.11,21.97-22.16h0ZM3.1,17.18c-12.43.05-22.46,10.17-22.41,22.6.05,12.43,10.17,22.46,22.6,22.41,12.43-.05,22.46-10.17,22.41-22.6-.05-12.43-10.17-22.46-22.6-22.41h0Z"/><path class="cls-68" d="M3.1,17.32c12.35-.05,22.4,9.91,22.46,22.26.05,12.35-9.91,22.4-22.26,22.46-12.35.05-22.4-9.91-22.46-22.26-.05-12.35,9.91-22.4,22.26-22.46h0ZM3.1,16.89c-12.59.05-22.75,10.3-22.7,22.89.05,12.59,10.3,22.75,22.89,22.7,12.59-.05,22.75-10.3,22.7-22.89-.05-12.59-10.3-22.75-22.89-22.7h0Z"/><path class="cls-33" d="M3.1,17.03c12.51-.05,22.69,10.04,22.75,22.55.05,12.51-10.04,22.69-22.55,22.75-12.51.05-22.69-10.04-22.75-22.55-.05-12.51,10.04-22.69,22.55-22.75h0ZM3.1,16.6c-12.75.06-23.04,10.44-22.98,23.18.06,12.75,10.44,23.04,23.18,22.98,12.75-.06,23.04-10.44,22.98-23.18-.06-12.75-10.44-23.04-23.18-22.98h0Z"/><path class="cls-121" d="M3.1,16.74c12.67-.05,22.98,10.17,23.04,22.84.05,12.67-10.17,22.98-22.84,23.04-12.67.05-22.98-10.17-23.04-22.84-.05-12.67,10.17-22.98,22.84-23.04h0ZM3.1,16.3c-12.91.06-23.33,10.57-23.27,23.48.06,12.91,10.57,23.33,23.48,23.27,12.91-.06,23.33-10.57,23.27-23.48-.06-12.91-10.57-23.33-23.48-23.27h0Z"/><path class="cls-12" d="M3.1,16.45c12.83-.06,23.28,10.3,23.33,23.13.06,12.83-10.3,23.28-23.13,23.33-12.83.06-23.28-10.3-23.33-23.13-.06-12.83,10.3-23.28,23.13-23.33h0ZM3.1,16.01c-13.07.06-23.62,10.7-23.56,23.77.06,13.07,10.7,23.62,23.77,23.56,13.07-.06,23.62-10.7,23.56-23.77-.06-13.07-10.7-23.62-23.77-23.56h0Z"/><path class="cls-14" d="M3.1,16.16c12.99-.06,23.57,10.43,23.62,23.42.06,12.99-10.43,23.57-23.42,23.62-12.99.06-23.57-10.43-23.62-23.42-.06-12.99,10.43-23.57,23.42-23.62h0ZM3.1,15.72c-13.23.06-23.91,10.83-23.85,24.06.06,13.23,10.83,23.91,24.06,23.85,13.23-.06,23.91-10.83,23.85-24.06-.06-13.23-10.83-23.91-24.06-23.85h0Z"/><path class="cls-40" d="M3.1,15.87c13.15-.06,23.86,10.56,23.91,23.71.06,13.15-10.56,23.86-23.71,23.91-13.15.06-23.86-10.56-23.91-23.71-.06-13.15,10.56-23.86,23.71-23.91h0ZM3.09,15.43c-13.39.06-24.2,10.96-24.14,24.35.06,13.39,10.96,24.2,24.35,24.14,13.39-.06,24.2-10.96,24.14-24.35-.06-13.39-10.96-24.2-24.35-24.14h0Z"/><path class="cls-132" d="M3.1,15.58c13.31-.06,24.15,10.69,24.21,24,.06,13.31-10.69,24.15-24,24.21-13.31.06-24.15-10.69-24.21-24-.06-13.31,10.69-24.15,24-24.21h0ZM3.09,15.14c-13.55.06-24.49,11.09-24.43,24.64.06,13.55,11.09,24.49,24.64,24.43s24.49-11.09,24.43-24.64c-.06-13.55-11.09-24.49-24.64-24.43h0Z"/><path class="cls-39" d="M3.09,15.29c13.47-.06,24.44,10.81,24.5,24.29.06,13.47-10.81,24.44-24.29,24.5-13.47.06-24.44-10.81-24.5-24.29-.06-13.47,10.81-24.44,24.29-24.5h0ZM3.09,14.85c-13.71.06-24.78,11.22-24.72,24.93.06,13.71,11.22,24.78,24.93,24.72,13.71-.06,24.78-11.22,24.72-24.93-.06-13.71-11.22-24.78-24.93-24.72h0Z"/><path class="cls-86" d="M3.09,15c13.63-.06,24.73,10.94,24.79,24.57.06,13.63-10.94,24.73-24.57,24.79-13.63.06-24.73-10.94-24.79-24.57-.06-13.63,10.94-24.73,24.57-24.79h0ZM3.09,14.56c-13.87.06-25.07,11.35-25.01,25.23.06,13.87,11.35,25.07,25.23,25.01,13.87-.06,25.07-11.35,25.01-25.23-.06-13.87-11.35-25.07-25.23-25.01h0Z"/><path class="cls-29" d="M3.09,14.71c13.79-.06,25.02,11.07,25.08,24.86.06,13.79-11.07,25.02-24.86,25.08-13.79.06-25.02-11.07-25.08-24.86-.06-13.79,11.07-25.02,24.86-25.08h0ZM3.09,14.27c-14.03.06-25.36,11.49-25.3,25.52.06,14.03,11.49,25.36,25.52,25.3,14.03-.06,25.36-11.49,25.3-25.52-.06-14.03-11.49-25.36-25.52-25.3h0Z"/><path class="cls-13" d="M3.09,14.42c13.95-.06,25.31,11.2,25.37,25.15.06,13.95-11.2,25.31-25.15,25.37-13.95.06-25.31-11.2-25.37-25.15-.06-13.95,11.2-25.31,25.15-25.37h0ZM3.09,13.98c-14.19.06-25.65,11.62-25.59,25.81.06,14.19,11.62,25.65,25.81,25.59,14.19-.06,25.65-11.62,25.59-25.81-.06-14.19-11.62-25.65-25.81-25.59h0Z"/><path class="cls-17" d="M3.09,14.13c14.11-.06,25.6,11.33,25.66,25.44.06,14.11-11.33,25.6-25.44,25.66-14.11.06-25.6-11.33-25.66-25.44-.06-14.11,11.33-25.6,25.44-25.66h0ZM3.09,13.69c-14.35.06-25.94,11.75-25.88,26.1.06,14.35,11.75,25.94,26.1,25.88,14.35-.06,25.94-11.75,25.88-26.1-.06-14.35-11.75-25.94-26.1-25.88h0Z"/><path class="cls-3" d="M3.09,13.84c14.27-.06,25.89,11.46,25.96,25.73.06,14.27-11.46,25.89-25.73,25.96-14.27.06-25.89-11.46-25.96-25.73-.06-14.27,11.46-25.89,25.73-25.96h0ZM3.09,13.4c-14.51.06-26.23,11.88-26.16,26.39.06,14.51,11.88,26.23,26.39,26.16,14.51-.06,26.23-11.88,26.16-26.39-.06-14.51-11.88-26.23-26.39-26.16h0Z"/><path class="cls-51" d="M3.09,13.55c14.43-.06,26.18,11.59,26.25,26.02.06,14.43-11.59,26.18-26.02,26.25-14.43.06-26.18-11.59-26.25-26.02-.06-14.43,11.59-26.18,26.02-26.25h0ZM3.08,13.11c-14.67.06-26.52,12.01-26.45,26.68.06,14.67,12.01,26.52,26.68,26.45,14.67-.06,26.52-12.01,26.45-26.68-.06-14.67-12.01-26.52-26.68-26.45h0Z"/><path class="cls-125" d="M3.09,13.26c14.59-.06,26.48,11.72,26.54,26.31.06,14.59-11.72,26.48-26.31,26.54-14.59.06-26.48-11.72-26.54-26.31-.06-14.59,11.72-26.48,26.31-26.54h0ZM3.08,12.82c-14.83.06-26.81,12.14-26.74,26.98.06,14.83,12.14,26.81,26.98,26.74,14.83-.06,26.81-12.14,26.74-26.98-.06-14.83-12.14-26.81-26.98-26.74h0Z"/><path class="cls-6" d="M3.08,12.97c14.75-.06,26.77,11.84,26.83,26.6.06,14.75-11.84,26.77-26.6,26.83-14.75.06-26.77-11.84-26.83-26.6-.06-14.75,11.84-26.77,26.6-26.83h0ZM3.08,12.53c-14.99.07-27.1,12.27-27.03,27.27.07,14.99,12.27,27.1,27.27,27.03,14.99-.07,27.1-12.27,27.03-27.27-.06-14.99-12.27-27.1-27.27-27.03h0Z"/><path class="cls-62" d="M3.08,12.68c14.91-.06,27.06,11.97,27.12,26.89.06,14.91-11.97,27.06-26.89,27.12-14.91.06-27.06-11.97-27.12-26.89-.06-14.91,11.97-27.06,26.89-27.12h0ZM3.08,12.24c-15.15.07-27.39,12.4-27.32,27.56.07,15.15,12.4,27.39,27.56,27.32,15.15-.07,27.39-12.4,27.32-27.56-.07-15.15-12.4-27.39-27.56-27.32h0Z"/><path class="cls-25" d="M3.08,12.38c15.07-.07,27.35,12.1,27.41,27.18.07,15.07-12.1,27.35-27.18,27.41-15.07.07-27.35-12.1-27.41-27.18-.07-15.07,12.1-27.35,27.18-27.41h0ZM3.08,11.95c-15.32.07-27.68,12.54-27.61,27.85.07,15.32,12.54,27.68,27.85,27.61,15.32-.07,27.68-12.54,27.61-27.85-.07-15.32-12.54-27.68-27.85-27.61h0Z"/><path class="cls-76" d="M3.08,12.09c15.24-.07,27.64,12.23,27.71,27.47.07,15.24-12.23,27.64-27.47,27.71-15.24.07-27.64-12.23-27.71-27.47-.07-15.24,12.23-27.64,27.47-27.71h0ZM3.08,11.66c-15.48.07-27.97,12.67-27.9,28.14.07,15.48,12.67,27.97,28.14,27.9s27.97-12.67,27.9-28.14c-.07-15.48-12.67-27.97-28.14-27.9h0Z"/><path class="cls-93" d="M3.08,11.8c15.4-.07,27.93,12.36,28,27.75.07,15.4-12.36,27.93-27.76,28-15.4.07-27.93-12.36-28-27.75-.07-15.4,12.36-27.93,27.75-28h0ZM3.08,11.37c-15.64.07-28.26,12.8-28.19,28.43.07,15.64,12.8,28.26,28.43,28.19,15.64-.07,28.26-12.8,28.19-28.43-.07-15.64-12.8-28.26-28.43-28.19h0Z"/><path class="cls-78" d="M3.08,11.51c15.56-.07,28.22,12.49,28.29,28.04.07,15.56-12.49,28.22-28.04,28.29-15.56.07-28.22-12.49-28.29-28.04-.07-15.56,12.49-28.22,28.04-28.29h0ZM3.08,11.08c-15.8.07-28.55,12.93-28.48,28.73.07,15.8,12.93,28.55,28.73,28.48,15.8-.07,28.55-12.93,28.48-28.73-.07-15.8-12.93-28.55-28.73-28.48h0Z"/><path class="cls-92" d="M3.08,11.22c15.72-.07,28.51,12.62,28.58,28.33.07,15.72-12.62,28.51-28.33,28.58-15.72.07-28.51-12.62-28.58-28.33-.07-15.72,12.62-28.51,28.33-28.58h0ZM3.07,10.79c-15.96.07-28.84,13.06-28.77,29.02.07,15.96,13.06,28.84,29.02,28.77,15.96-.07,28.84-13.06,28.77-29.02-.07-15.96-13.06-28.84-29.02-28.77h0Z"/><path class="cls-57" d="M3.08,10.93c15.88-.07,28.8,12.75,28.87,28.62.07,15.88-12.75,28.8-28.62,28.87-15.88.07-28.8-12.75-28.87-28.62-.07-15.88,12.75-28.8,28.62-28.87h0ZM3.07,10.5c-16.12.07-29.13,13.19-29.06,29.31.07,16.12,13.19,29.13,29.31,29.06,16.12-.07,29.13-13.19,29.06-29.31-.07-16.12-13.19-29.13-29.31-29.06h0Z"/><path class="cls-118" d="M3.07,10.64c16.04-.07,29.09,12.87,29.16,28.91.07,16.04-12.87,29.09-28.91,29.16-16.04.07-29.09-12.87-29.16-28.91-.07-16.04,12.87-29.09,28.91-29.16h0ZM3.07,10.21c-16.28.07-29.42,13.32-29.35,29.6.07,16.28,13.32,29.42,29.6,29.35,16.28-.07,29.42-13.32,29.35-29.6-.07-16.28-13.32-29.42-29.6-29.35h0Z"/><path class="cls-60" d="M3.07,10.35c16.2-.07,29.38,13,29.46,29.2.07,16.2-13,29.38-29.2,29.46-16.2.07-29.38-13-29.46-29.2-.07-16.2,13-29.38,29.2-29.46h0ZM3.07,9.92c-16.44.07-29.71,13.45-29.63,29.89.07,16.44,13.45,29.71,29.89,29.63,16.44-.07,29.71-13.45,29.63-29.89-.07-16.44-13.45-29.71-29.89-29.63h0Z"/><path class="cls-15" d="M3.07,10.06c16.36-.07,29.68,13.13,29.75,29.49.07,16.36-13.13,29.68-29.49,29.75-16.36.07-29.68-13.13-29.75-29.49-.07-16.36,13.13-29.68,29.49-29.75h0ZM3.07,9.63c-16.6.07-30,13.59-29.92,30.18.07,16.6,13.59,30,30.18,29.92,16.6-.07,30-13.59,29.92-30.18-.07-16.6-13.59-30-30.18-29.92h0Z"/><path class="cls-1" d="M3.07,9.77c16.52-.07,29.97,13.26,30.04,29.78.07,16.52-13.26,29.97-29.78,30.04-16.52.07-29.97-13.26-30.04-29.78-.07-16.52,13.26-29.97,29.78-30.04h0ZM3.07,9.34c-16.76.07-30.29,13.72-30.21,30.48.07,16.76,13.72,30.29,30.48,30.21,16.76-.07,30.29-13.72,30.21-30.48-.07-16.76-13.72-30.29-30.48-30.21h0Z"/><path class="cls-44" d="M3.07,9.48c16.68-.07,30.26,13.39,30.33,30.07.07,16.68-13.39,30.26-30.07,30.33-16.68.07-30.26-13.39-30.33-30.07-.07-16.68,13.39-30.26,30.07-30.33h0ZM3.07,9.05c-16.92.07-30.57,13.85-30.5,30.77.07,16.92,13.85,30.57,30.77,30.5,16.92-.07,30.57-13.85,30.5-30.77-.07-16.92-13.85-30.57-30.77-30.5h0Z"/><path class="cls-74" d="M3.07,9.19c16.84-.07,30.55,13.52,30.62,30.36.07,16.84-13.52,30.55-30.36,30.62-16.84.07-30.55-13.52-30.62-30.36-.07-16.84,13.52-30.55,30.36-30.62h0ZM3.07,8.76c-17.08.07-30.86,13.98-30.79,31.06.07,17.08,13.98,30.86,31.06,30.79,17.08-.07,30.86-13.98,30.79-31.06-.07-17.08-13.98-30.86-31.06-30.79h0Z"/><path class="cls-58" d="M3.07,8.9c17-.07,30.84,13.65,30.91,30.65.07,17-13.65,30.84-30.65,30.91-17,.07-30.84-13.65-30.91-30.65-.07-17,13.65-30.84,30.65-30.91h0ZM3.06,8.46c-17.24.07-31.15,14.11-31.08,31.35.07,17.24,14.11,31.15,31.35,31.08,17.24-.07,31.15-14.11,31.08-31.35-.07-17.24-14.11-31.15-31.35-31.08h0Z"/><path class="cls-26" d="M3.07,8.61c17.16-.07,31.13,13.78,31.2,30.94.07,17.16-13.78,31.13-30.94,31.2-17.16.07-31.13-13.78-31.2-30.94-.07-17.16,13.78-31.13,30.94-31.2h0ZM3.06,8.17c-17.4.08-31.44,14.24-31.37,31.64.08,17.4,14.24,31.44,31.64,31.37,17.4-.08,31.44-14.24,31.37-31.64-.08-17.4-14.24-31.44-31.64-31.37h0Z"/><path class="cls-111" d="M3.06,8.32c17.32-.08,31.42,13.9,31.5,31.22.08,17.32-13.9,31.42-31.22,31.5-17.32.08-31.42-13.9-31.5-31.22-.08-17.32,13.9-31.42,31.22-31.5h0ZM3.06,7.88c-17.56.08-31.73,14.37-31.66,31.93.08,17.56,14.37,31.73,31.93,31.66,17.56-.08,31.73-14.37,31.66-31.93-.08-17.56-14.37-31.73-31.93-31.66h0Z"/><path class="cls-133" d="M3.06,8.03c17.48-.08,31.71,14.03,31.79,31.51.08,17.48-14.03,31.71-31.51,31.79-17.48.08-31.71-14.03-31.79-31.51-.08-17.48,14.03-31.71,31.51-31.79h0ZM3.06,7.59c-17.72.08-32.02,14.5-31.95,32.23.08,17.72,14.5,32.02,32.23,31.95,17.72-.08,32.02-14.5,31.95-32.23-.08-17.72-14.5-32.02-32.23-31.95h0Z"/><path class="cls-67" d="M3.06,7.74c17.64-.08,32,14.16,32.08,31.8.08,17.64-14.16,32-31.8,32.08-17.64.08-32-14.16-32.08-31.8C-28.82,22.18-14.58,7.82,3.06,7.74h0ZM3.06,7.3c-17.88.08-32.31,14.64-32.24,32.52.08,17.88,14.64,32.31,32.52,32.24,17.88-.08,32.31-14.64,32.24-32.52-.08-17.88-14.64-32.31-32.52-32.24h0Z"/><path class="cls-80" d="M3.06,7.45c17.8-.08,32.29,14.29,32.37,32.09.08,17.8-14.29,32.29-32.09,32.37-17.8.08-32.29-14.29-32.37-32.09C-29.11,22.02-14.74,7.53,3.06,7.45h0ZM3.06,7.01c-18.04.08-32.6,14.77-32.53,32.81.08,18.04,14.77,32.6,32.81,32.53,18.04-.08,32.6-14.77,32.53-32.81-.08-18.04-14.77-32.6-32.81-32.53h0Z"/><path class="cls-10" d="M3.06,7.16c17.96-.08,32.59,14.42,32.66,32.38.08,17.96-14.42,32.59-32.38,32.66-17.96.08-32.59-14.42-32.66-32.38C-29.4,21.86-14.9,7.24,3.06,7.16h0ZM3.06,6.72c-18.2.08-32.89,14.9-32.81,33.1.08,18.2,14.9,32.89,33.1,32.81,18.2-.08,32.89-14.9,32.81-33.1-.08-18.2-14.9-32.89-33.1-32.81h0Z"/><path class="cls-46" d="M3.06,6.87c18.12-.08,32.88,14.55,32.95,32.67.08,18.12-14.55,32.88-32.67,32.95-18.12.08-32.88-14.55-32.95-32.67C-29.69,21.7-15.06,6.95,3.06,6.87h0ZM3.06,6.43c-18.36.08-33.18,15.03-33.1,33.39.08,18.36,15.03,33.18,33.39,33.1,18.36-.08,33.18-15.03,33.1-33.39-.08-18.36-15.03-33.18-33.39-33.1h0Z"/><path class="cls-24" d="M3.06,6.58c18.28-.08,33.17,14.68,33.25,32.96.08,18.28-14.68,33.17-32.96,33.25-18.28.08-33.17-14.68-33.25-32.96C-29.98,21.54-15.23,6.66,3.06,6.58h0ZM3.05,6.14c-18.52.08-33.47,15.16-33.39,33.68.08,18.52,15.16,33.47,33.68,33.39,18.52-.08,33.47-15.16,33.39-33.68-.08-18.52-15.16-33.47-33.68-33.39h0Z"/><path class="cls-112" d="M3.06,6.29c18.44-.08,33.46,14.81,33.54,33.25.08,18.44-14.81,33.46-33.25,33.54-18.44.08-33.46-14.81-33.54-33.25C-30.27,21.38-15.39,6.37,3.06,6.29h0ZM3.05,5.85c-18.68.08-33.76,15.29-33.68,33.98.08,18.68,15.29,33.76,33.98,33.68,18.68-.08,33.76-15.29,33.68-33.98-.08-18.68-15.29-33.76-33.98-33.68h0Z"/><path class="cls-56" d="M3.05,6c18.6-.08,33.75,14.93,33.83,33.54.08,18.6-14.93,33.75-33.54,33.83s-33.75-14.93-33.83-33.54C-30.56,21.22-15.55,6.08,3.05,6h0ZM3.05,5.56c-18.84.08-34.05,15.42-33.97,34.27.08,18.84,15.42,34.05,34.27,33.97,18.84-.08,34.05-15.42,33.97-34.27-.08-18.84-15.42-34.05-34.27-33.97h0Z"/><path class="cls-61" d="M3.05,5.71c18.76-.08,34.04,15.06,34.12,33.83.08,18.76-15.06,34.04-33.83,34.12-18.76.08-34.04-15.06-34.12-33.83C-30.86,21.06-15.71,5.79,3.05,5.71h0ZM3.05,5.27c-19,.08-34.34,15.55-34.26,34.56.08,19,15.55,34.34,34.56,34.26,19-.08,34.34-15.55,34.26-34.56-.08-19-15.55-34.34-34.56-34.26h0Z"/><path class="cls-127" d="M3.05,5.42c18.92-.08,34.33,15.19,34.41,34.12.08,18.92-15.19,34.33-34.12,34.41-18.92.08-34.33-15.19-34.41-34.12C-31.15,20.91-15.87,5.5,3.05,5.42h0ZM3.05,4.98c-19.16.08-34.63,15.69-34.55,34.85.08,19.16,15.69,34.63,34.85,34.55,19.16-.08,34.63-15.69,34.55-34.85-.08-19.16-15.69-34.63-34.85-34.55h0Z"/><path class="cls-102" d="M3.05,5.13c19.08-.08,34.62,15.32,34.7,34.4.08,19.08-15.32,34.62-34.4,34.7s-34.62-15.32-34.7-34.4C-31.44,20.75-16.03,5.21,3.05,5.13h0ZM3.05,4.69c-19.32.08-34.92,15.82-34.84,35.14.08,19.32,15.82,34.92,35.14,34.84,19.32-.08,34.92-15.82,34.84-35.14-.08-19.32-15.82-34.92-35.14-34.84h0Z"/><path class="cls-88" d="M3.05,4.83c19.24-.08,34.91,15.45,35,34.69.08,19.24-15.45,34.91-34.69,35-19.24.08-34.91-15.45-35-34.69C-31.73,20.59-16.2,4.92,3.05,4.83h0ZM3.05,4.4c-19.48.08-35.21,15.95-35.13,35.43.08,19.48,15.95,35.21,35.43,35.13,19.48-.08,35.21-15.95,35.13-35.43-.08-19.48-15.95-35.21-35.43-35.13h0Z"/><path class="cls-95" d="M3.05,4.54c19.4-.08,35.2,15.58,35.29,34.98.08,19.4-15.58,35.2-34.98,35.29-19.4.08-35.2-15.58-35.29-34.98-.08-19.4,15.58-35.2,34.98-35.29h0ZM3.05,4.11c-19.65.09-35.5,16.08-35.42,35.73.09,19.65,16.08,35.5,35.73,35.42,19.65-.09,35.5-16.08,35.42-35.73C38.69,19.88,22.69,4.02,3.05,4.11h0Z"/><path class="cls-87" d="M3.05,4.25c19.57-.08,35.49,15.71,35.58,35.27.08,19.57-15.71,35.49-35.27,35.58s-35.49-15.71-35.58-35.27c-.08-19.57,15.71-35.49,35.27-35.58h0ZM3.04,3.82c-19.81.09-35.79,16.21-35.71,36.02.09,19.81,16.21,35.79,36.02,35.71,19.81-.09,35.79-16.21,35.71-36.02C38.98,19.72,22.85,3.73,3.04,3.82h0Z"/><path class="cls-35" d="M3.05,3.96c19.73-.09,35.79,15.84,35.87,35.56.09,19.73-15.84,35.79-35.56,35.87-19.73.09-35.79-15.84-35.87-35.56C-32.6,20.11-16.68,4.05,3.05,3.96h0ZM3.04,3.53c-19.97.09-36.08,16.34-35.99,36.31.09,19.97,16.34,36.08,36.31,35.99,19.97-.09,36.08-16.34,35.99-36.31C39.27,19.56,23.01,3.44,3.04,3.53h0Z"/><path class="cls-91" d="M3.04,3.67c19.89-.09,36.08,15.96,36.16,35.85.09,19.89-15.96,36.08-35.85,36.16-19.89.09-36.08-15.96-36.16-35.85C-32.89,19.95-16.84,3.76,3.04,3.67h0ZM3.04,3.24c-20.13.09-36.37,16.47-36.28,36.6.09,20.13,16.47,36.37,36.6,36.28,20.13-.09,36.37-16.47,36.28-36.6C39.55,19.4,23.17,3.15,3.04,3.24h0Z"/><path class="cls-113" d="M3.04,3.38c20.05-.09,36.37,16.09,36.45,36.14.09,20.05-16.09,36.37-36.14,36.45-20.05.09-36.37-16.09-36.45-36.14C-33.18,19.79-17,3.47,3.04,3.38h0ZM3.04,2.95c-20.29.09-36.66,16.6-36.57,36.89.09,20.29,16.61,36.66,36.89,36.57,20.29-.09,36.66-16.61,36.57-36.89C39.84,19.23,23.33,2.86,3.04,2.95h0Z"/><path class="cls-117" d="M3.04,3.09c20.21-.09,36.66,16.22,36.75,36.43.09,20.21-16.22,36.66-36.43,36.75-20.21.09-36.66-16.22-36.75-36.43C-33.47,19.63-17.17,3.18,3.04,3.09h0ZM3.04,2.66c-20.45.09-36.95,16.74-36.86,37.18.09,20.45,16.74,36.95,37.18,36.86,20.45-.09,36.95-16.74,36.86-37.18C40.13,19.07,23.49,2.57,3.04,2.66h0Z"/><path class="cls-41" d="M3.04,2.8c20.37-.09,36.95,16.35,37.04,36.72.09,20.37-16.35,36.95-36.72,37.04-20.37.09-36.95-16.35-37.04-36.72C-33.77,19.47-17.33,2.89,3.04,2.8h0ZM3.04,2.37c-20.61.09-37.24,16.87-37.15,37.48.09,20.61,16.87,37.24,37.48,37.15,20.61-.09,37.24-16.87,37.15-37.48C40.42,18.91,23.65,2.28,3.04,2.37h0Z"/><path class="cls-70" d="M3.04,2.51c20.53-.09,37.24,16.48,37.33,37.01.09,20.53-16.48,37.24-37.01,37.33-20.53.09-37.24-16.48-37.33-37.01C-34.06,19.31-17.49,2.6,3.04,2.51h0ZM3.04,2.08c-20.77.09-37.53,17-37.44,37.77.09,20.77,17,37.53,37.77,37.44,20.77-.09,37.53-17,37.44-37.77C40.71,18.75,23.8,1.99,3.04,2.08h0Z"/><path class="cls-2" d="M3.04,2.22c20.69-.09,37.53,16.61,37.62,37.3.09,20.69-16.61,37.53-37.3,37.62-20.69.09-37.53-16.61-37.62-37.3C-34.35,19.15-17.65,2.31,3.04,2.22h0ZM3.04,1.79c-20.93.09-37.82,17.13-37.73,38.06.09,20.93,17.13,37.82,38.06,37.73,20.93-.09,37.82-17.13,37.73-38.06C41,18.59,23.96,1.7,3.04,1.79h0Z"/><path class="cls-59" d="M3.04,1.93c20.85-.09,37.82,16.74,37.91,37.58.09,20.85-16.74,37.82-37.58,37.91-20.85.09-37.82-16.74-37.91-37.58C-34.64,19-17.81,2.02,3.04,1.93h0ZM3.03,1.5c-21.09.09-38.11,17.26-38.02,38.35.09,21.09,17.26,38.11,38.35,38.02,21.09-.09,38.11-17.26,38.02-38.35C41.29,18.43,24.12,1.4,3.03,1.5h0Z"/><path class="cls-131" d="M3.03,1.64c21.01-.09,38.11,16.87,38.2,37.87.09,21.01-16.87,38.11-37.87,38.2-21.01.09-38.11-16.87-38.2-37.87C-34.93,18.84-17.97,1.73,3.03,1.64h0ZM3.03,1.21c-21.25.09-38.4,17.39-38.31,38.64.09,21.25,17.39,38.4,38.64,38.31s38.4-17.39,38.31-38.64C41.58,18.26,24.28,1.11,3.03,1.21h0Z"/><path class="cls-66" d="M3.03,1.35c21.17-.09,38.4,16.99,38.5,38.16.09,21.17-16.99,38.4-38.16,38.5-21.17.09-38.4-16.99-38.5-38.16C-35.22,18.68-18.14,1.44,3.03,1.35h0ZM3.03.91c-21.41.09-38.69,17.52-38.6,38.93.09,21.41,17.52,38.69,38.93,38.6,21.41-.09,38.69-17.52,38.6-38.93C41.87,18.1,24.44.82,3.03.91h0Z"/><path class="cls-52" d="M3.03,1.06c21.33-.09,38.69,17.12,38.79,38.45.09,21.33-17.12,38.69-38.45,38.79-21.33.09-38.69-17.12-38.79-38.45C-35.51,18.52-18.3,1.15,3.03,1.06h0ZM3.03.62c-21.57.09-38.98,17.66-38.89,39.22.09,21.57,17.66,38.98,39.22,38.89,21.57-.09,38.98-17.66,38.89-39.22C42.16,17.94,24.6.53,3.03.62h0Z"/><path class="cls-11" d="M3.03.77c21.49-.09,38.99,17.25,39.08,38.74.09,21.49-17.25,38.99-38.74,39.08-21.49.09-38.99-17.25-39.08-38.74C-35.8,18.36-18.46.86,3.03.77h0ZM3.03.33c-21.73.09-39.27,17.79-39.18,39.52.09,21.73,17.79,39.27,39.52,39.18,21.73-.09,39.27-17.79,39.17-39.52C42.45,17.78,24.76.24,3.03.33h0Z"/><path class="cls-36" d="M3.03.48c21.65-.09,39.28,17.38,39.37,39.03.09,21.65-17.38,39.28-39.03,39.37-21.65.09-39.28-17.38-39.37-39.03C-36.09,18.2-18.62.57,3.03.48h0ZM3.03.04c-21.89.09-39.56,17.92-39.46,39.81.09,21.89,17.92,39.56,39.81,39.46,21.89-.09,39.56-17.92,39.46-39.81C42.74,17.62,24.92-.05,3.03.04h0Z"/><path class="cls-47" d="M3.03.19c21.81-.09,39.57,17.51,39.66,39.32.09,21.81-17.51,39.57-39.32,39.66-21.81.09-39.57-17.51-39.66-39.32C-36.39,18.04-18.78.28,3.03.19h0ZM3.03-.25c-22.05.1-39.85,18.05-39.75,40.1.1,22.05,18.05,39.85,40.1,39.75,22.05-.1,39.85-18.05,39.75-40.1C43.03,17.46,25.08-.34,3.03-.25h0Z"/><path class="cls-21" d="M3.03-.1c21.97-.1,39.86,17.64,39.95,39.61.1,21.97-17.64,39.86-39.61,39.95-21.97.1-39.86-17.64-39.95-39.61C-36.68,17.88-18.94,0,3.03-.1h0ZM3.03-.54c-22.21.1-40.14,18.18-40.04,40.39.1,22.21,18.18,40.14,40.39,40.04,22.21-.1,40.14-18.18,40.04-40.39C43.32,17.29,25.24-.63,3.03-.54h0Z"/><path class="cls-120" d="M3.03-.39c22.13-.1,40.15,17.77,40.25,39.9.1,22.13-17.77,40.15-39.9,40.25-22.13.1-40.15-17.77-40.25-39.9C-36.97,17.72-19.1-.3,3.03-.39h0ZM3.02-.83c-22.37.1-40.43,18.31-40.33,40.68.1,22.37,18.31,40.43,40.68,40.33,22.37-.1,40.43-18.31,40.33-40.68C43.61,17.13,25.4-.92,3.02-.83h0Z"/><path class="cls-119" d="M3.02-.68c22.29-.1,40.44,17.9,40.54,40.19.1,22.29-17.9,40.44-40.19,40.54-22.29.1-40.44-17.9-40.54-40.19C-37.26,17.56-19.27-.59,3.02-.68h0ZM3.02-1.12c-22.53.1-40.72,18.44-40.62,40.97S-19.15,80.58,3.38,80.48c22.53-.1,40.72-18.44,40.62-40.97C43.9,16.97,25.55-1.22,3.02-1.12h0Z"/><path class="cls-110" d="M3.02-.97c22.45-.1,40.73,18.02,40.83,40.48.1,22.45-18.02,40.73-40.48,40.83-22.45.1-40.73-18.02-40.83-40.48C-37.55,17.4-19.43-.88,3.02-.97h0ZM3.02-1.41c-22.69.1-41.01,18.57-40.91,41.27.1,22.69,18.57,41.01,41.27,40.91,22.69-.1,41.01-18.57,40.91-41.27C44.19,16.81,25.71-1.51,3.02-1.41h0Z"/><path class="cls-100" d="M3.02-1.26c22.61-.1,41.02,18.15,41.12,40.77.1,22.61-18.15,41.02-40.77,41.12-22.61.1-41.02-18.15-41.12-40.77C-37.84,17.25-19.59-1.16,3.02-1.26h0ZM3.02-1.7c-22.85.1-41.3,18.71-41.2,41.56.1,22.85,18.71,41.3,41.56,41.2,22.85-.1,41.3-18.71,41.2-41.56C44.48,16.65,25.87-1.8,3.02-1.7h0Z"/><path class="cls-8" d="M3.02-1.55c22.77-.1,41.31,18.28,41.41,41.05.1,22.77-18.28,41.31-41.05,41.41-22.77.1-41.31-18.28-41.41-41.05C-38.13,17.09-19.75-1.45,3.02-1.55h0ZM3.02-1.99c-23.01.1-41.59,18.84-41.49,41.85.1,23.01,18.84,41.59,41.85,41.49,23.01-.1,41.59-18.84,41.49-41.85C44.77,16.49,26.03-2.09,3.02-1.99h0Z"/><path class="cls-83" d="M3.02-1.84c22.93-.1,41.6,18.41,41.7,41.34.1,22.93-18.41,41.6-41.34,41.7-22.93.1-41.6-18.41-41.7-41.34C-38.42,16.93-19.91-1.74,3.02-1.84h0ZM3.02-2.28c-23.17.1-41.88,18.97-41.78,42.14.1,23.17,18.97,41.88,42.14,41.78,23.17-.1,41.88-18.97,41.78-42.14C45.06,16.32,26.19-2.38,3.02-2.28h0Z"/><path class="cls-101" d="M3.02-2.13c23.09-.1,41.9,18.54,42,41.63.1,23.09-18.54,41.9-41.63,42-23.09.1-41.9-18.54-42-41.63C-38.71,16.77-20.07-2.03,3.02-2.13h0ZM3.02-2.57c-23.33.1-42.17,19.1-42.07,42.43.1,23.33,19.1,42.17,42.43,42.07,23.33-.1,42.17-19.1,42.07-42.43C45.35,16.16,26.35-2.67,3.02-2.57h0Z"/><path class="cls-37" d="M3.02-2.42c23.25-.1,42.19,18.67,42.29,41.92.1,23.25-18.67,42.19-41.92,42.29-23.25.1-42.19-18.67-42.29-41.92C-39.01,16.61-20.24-2.32,3.02-2.42h0ZM3.02-2.86c-23.49.1-42.46,19.23-42.36,42.72.1,23.49,19.23,42.46,42.72,42.36,23.49-.1,42.46-19.23,42.36-42.72C45.64,16,26.51-2.96,3.02-2.86h0Z"/><path class="cls-99" d="M3.02-2.71c23.41-.1,42.48,18.8,42.58,42.21.1,23.41-18.8,42.48-42.21,42.58-23.41.1-42.48-18.8-42.58-42.21C-39.3,16.45-20.4-2.61,3.02-2.71h0ZM3.01-3.15c-23.65.1-42.75,19.36-42.64,43.02.1,23.65,19.36,42.75,43.02,42.64,23.65-.1,42.75-19.36,42.64-43.02C45.93,15.84,26.67-3.25,3.01-3.15h0Z"/><path class="cls-96" d="M3.01-3.01c23.57-.1,42.77,18.93,42.87,42.5.1,23.57-18.93,42.77-42.5,42.87-23.57.1-42.77-18.93-42.87-42.5C-39.59,16.29-20.56-2.9,3.01-3.01h0ZM3.01-3.44c-23.81.1-43.04,19.49-42.93,43.31.1,23.81,19.49,43.04,43.31,42.93,23.81-.1,43.04-19.49,42.93-43.31C46.22,15.68,26.83-3.54,3.01-3.44h0Z"/><path class="cls-94" d="M3.01-3.3c23.73-.1,43.06,19.05,43.16,42.79.1,23.73-19.05,43.06-42.79,43.16-23.73.1-43.06-19.05-43.16-42.79C-39.88,16.13-20.72-3.19,3.01-3.3h0ZM3.01-3.73c-23.98.1-43.33,19.62-43.22,43.6.1,23.98,19.62,43.33,43.6,43.22,23.98-.1,43.33-19.62,43.22-43.6C46.51,15.52,26.99-3.84,3.01-3.73h0Z"/><path class="cls-53" d="M3.01-3.59c23.89-.1,43.35,19.18,43.45,43.08.1,23.9-19.18,43.35-43.08,43.45-23.89.1-43.35-19.18-43.45-43.08C-40.17,15.97-20.88-3.48,3.01-3.59h0ZM3.01-4.02c-24.14.1-43.62,19.76-43.51,43.89.1,24.14,19.76,43.62,43.89,43.51,24.14-.1,43.62-19.76,43.51-43.89C46.8,15.35,27.15-4.13,3.01-4.02h0Z"/><path class="cls-54" d="M3.01-3.88c24.06-.1,43.64,19.31,43.75,43.37.1,24.06-19.31,43.64-43.37,43.75-24.06.1-43.64-19.31-43.75-43.37C-40.46,15.81-21.04-3.77,3.01-3.88h0ZM3.01-4.31c-24.3.11-43.91,19.89-43.8,44.18S-20.91,83.78,3.39,83.67c24.3-.11,43.91-19.89,43.8-44.18C47.09,15.19,27.31-4.42,3.01-4.31h0Z"/><path class="cls-129" d="M3.01-4.17c24.22-.11,43.93,19.44,44.04,43.66.11,24.22-19.44,43.93-43.66,44.04-24.22.11-43.93-19.44-44.04-43.66C-40.75,15.65-21.21-4.06,3.01-4.17h0ZM3.01-4.6c-24.46.11-44.2,20.02-44.09,44.47.11,24.46,20.02,44.2,44.47,44.09,24.46-.11,44.2-20.02,44.09-44.47C47.38,15.03,27.46-4.71,3.01-4.6h0Z"/><path class="cls-32" d="M3.01-4.46c24.38-.11,44.22,19.57,44.33,43.95.11,24.38-19.57,44.22-43.95,44.33-24.38.11-44.22-19.57-44.33-43.95C-41.04,15.5-21.37-4.35,3.01-4.46h0ZM3.01-4.89c-24.62.11-44.49,20.15-44.38,44.77.11,24.62,20.15,44.49,44.77,44.38,24.62-.11,44.49-20.15,44.38-44.77C47.67,14.87,27.62-5,3.01-4.89h0Z"/><path class="cls-103" d="M3.01-4.75c24.54-.11,44.51,19.7,44.62,44.23.11,24.54-19.7,44.51-44.23,44.62-24.54.11-44.51-19.7-44.62-44.23C-41.33,15.34-21.53-4.64,3.01-4.75h0ZM3.01-5.18c-24.78.11-44.78,20.28-44.67,45.06.11,24.78,20.28,44.78,45.06,44.67,24.78-.11,44.78-20.28,44.67-45.06C47.96,14.71,27.78-5.29,3.01-5.18h0Z"/><path class="cls-103" d="M3.01-5.04c24.7-.11,44.8,19.83,44.91,44.52.11,24.7-19.83,44.8-44.52,44.91-24.7.11-44.8-19.83-44.91-44.52C-41.62,15.18-21.69-4.93,3.01-5.04h0ZM3-5.47c-24.94.11-45.07,20.41-44.96,45.35.11,24.94,20.41,45.07,45.35,44.96,24.94-.11,45.07-20.41,44.96-45.35C48.25,14.55,27.94-5.58,3-5.47h0Z"/><path class="cls-18" d="M3-5.33c24.86-.11,45.1,19.96,45.2,44.81.11,24.86-19.96,45.1-44.81,45.2-24.86.11-45.1-19.96-45.2-44.81C-41.92,15.02-21.85-5.22,3-5.33h0ZM3-5.76c-25.1.11-45.36,20.54-45.25,45.64.11,25.1,20.54,45.36,45.64,45.25,25.1-.11,45.36-20.54,45.25-45.64C48.53,14.38,28.1-5.87,3-5.76h0Z"/><path class="cls-84" d="M3-5.62c25.02-.11,45.39,20.08,45.49,45.1.11,25.02-20.08,45.39-45.1,45.49-25.02.11-45.39-20.08-45.49-45.1C-42.21,14.86-22.01-5.51,3-5.62h0ZM3-6.05c-25.26.11-45.65,20.67-45.54,45.93.11,25.26,20.67,45.65,45.93,45.54,25.26-.11,45.65-20.67,45.54-45.93C48.82,14.22,28.26-6.16,3-6.05h0Z"/><path class="cls-109" d="M3-5.91c25.18-.11,45.68,20.21,45.79,45.39.11,25.18-20.21,45.68-45.39,45.79-25.18.11-45.68-20.21-45.79-45.39C-42.5,14.7-22.18-5.8,3-5.91h0ZM3-6.34c-25.42.11-45.93,20.81-45.82,46.22.11,25.42,20.81,45.93,46.22,45.82,25.42-.11,45.93-20.81,45.82-46.22C49.11,14.06,28.42-6.45,3-6.34h0Z"/><path class="cls-16" d="M3-6.2c25.34-.11,45.97,20.34,46.08,45.68.11,25.34-20.34,45.97-45.68,46.08-25.34.11-45.97-20.34-46.08-45.68C-42.79,14.54-22.34-6.09,3-6.2h0ZM3-6.63c-25.58.11-46.22,20.94-46.11,46.52.11,25.58,20.94,46.22,46.52,46.11,25.58-.11,46.22-20.94,46.11-46.52C49.4,13.9,28.58-6.75,3-6.63h0Z"/><path class="cls-104" d="M3-6.49c25.5-.11,46.26,20.47,46.37,45.97.11,25.5-20.47,46.26-45.97,46.37-25.5.11-46.26-20.47-46.37-45.97C-43.08,14.38-22.5-6.38,3-6.49h0ZM3-6.93c-25.74.11-46.51,21.07-46.4,46.81.11,25.74,21.07,46.51,46.81,46.4,25.74-.11,46.51-21.07,46.4-46.81C49.69,13.74,28.74-7.04,3-6.93h0Z"/><path class="cls-104" d="M3-6.78c25.66-.11,46.55,20.6,46.66,46.26.11,25.66-20.6,46.55-46.26,46.66-25.66.11-46.55-20.6-46.66-46.26C-43.37,14.22-22.66-6.67,3-6.78h0ZM3-7.22c-25.9.11-46.8,21.2-46.69,47.1.11,25.9,21.2,46.8,47.1,46.69,25.9-.11,46.8-21.2,46.69-47.1C49.98,13.58,28.9-7.33,3-7.22h0Z"/><path class="cls-104" d="M3-7.07c25.82-.11,46.84,20.73,46.95,46.55.11,25.82-20.73,46.84-46.55,46.95-25.82.11-46.84-20.73-46.95-46.55C-43.66,14.06-22.82-6.96,3-7.07h0ZM3-7.51c-26.06.11-47.09,21.33-46.98,47.39.11,26.06,21.33,47.09,47.39,46.98,26.06-.11,47.09-21.33,46.98-47.39C50.27,13.42,29.06-7.62,3-7.51h0Z"/><path class="cls-104" d="M3-7.36c25.98-.11,47.13,20.86,47.24,46.84.11,25.98-20.86,47.13-46.84,47.24-25.98.11-47.13-20.86-47.24-46.84C-43.95,13.9-22.98-7.25,3-7.36h0ZM2.99-7.8c-26.22.11-47.38,21.46-47.27,47.68.11,26.22,21.46,47.38,47.68,47.27,26.22-.11,47.38-21.46,47.27-47.68C50.56,13.25,29.21-7.91,2.99-7.8h0Z"/><path class="cls-4" d="M2.99-7.65c26.14-.11,47.42,20.99,47.54,47.13.11,26.14-20.99,47.42-47.13,47.54-26.14.11-47.42-20.99-47.54-47.13C-44.24,13.75-23.15-7.54,2.99-7.65h0ZM2.99-8.09c-26.38.11-47.67,21.59-47.56,47.97.11,26.38,21.59,47.67,47.97,47.56,26.38-.11,47.67-21.59,47.56-47.97-.11-26.38-21.59-47.67-47.97-47.56h0Z"/><path class="cls-4" d="M2.99-7.94c26.3-.11,47.71,21.11,47.83,47.41.11,26.3-21.11,47.71-47.41,47.83-26.3.11-47.71-21.11-47.83-47.41C-44.54,13.59-23.31-7.83,2.99-7.94h0ZM2.99-8.38c-26.54.12-47.96,21.72-47.85,48.27.12,26.54,21.72,47.96,48.27,47.85,26.54-.12,47.96-21.72,47.85-48.27-.12-26.54-21.72-47.96-48.27-47.85h0Z"/><path class="cls-4" d="M2.99-8.23c26.46-.11,48,21.24,48.12,47.7.11,26.46-21.24,48-47.7,48.12-26.46.11-48-21.24-48.12-47.7-.11-26.46,21.24-48,47.7-48.12h0ZM2.99-8.67c-26.7.12-48.25,21.86-48.14,48.56.12,26.7,21.86,48.25,48.56,48.14,26.7-.12,48.25-21.86,48.14-48.56-.12-26.7-21.86-48.25-48.56-48.14h0Z"/><path class="cls-4" d="M2.99-8.52c26.62-.12,48.3,21.37,48.41,47.99.12,26.62-21.37,48.3-47.99,48.41-26.62.12-48.3-21.37-48.41-47.99-.12-26.62,21.37-48.3,47.99-48.41h0ZM2.99-8.96c-26.86.12-48.54,21.99-48.43,48.85.12,26.86,21.99,48.54,48.85,48.43,26.86-.12,48.54-21.99,48.43-48.85-.12-26.86-21.99-48.54-48.85-48.43h0Z"/><path class="cls-4" d="M2.99-8.81c26.78-.12,48.59,21.5,48.7,48.28.12,26.78-21.5,48.59-48.28,48.7-26.78.12-48.59-21.5-48.7-48.28-.12-26.78,21.5-48.59,48.28-48.7h0ZM2.99-9.25c-27.02.12-48.83,22.12-48.72,49.14.12,27.02,22.12,48.83,49.14,48.72,27.02-.12,48.83-22.12,48.72-49.14-.12-27.02-22.12-48.83-49.14-48.72h0Z"/><path class="cls-4" d="M2.99-9.1c26.94-.12,48.88,21.63,48.99,48.57.12,26.94-21.63,48.88-48.57,48.99-26.94.12-48.88-21.63-48.99-48.57-.12-26.94,21.63-48.88,48.57-48.99h0ZM2.99-9.54c-27.18.12-49.12,22.25-49,49.43.12,27.18,22.25,49.12,49.43,49,27.18-.12,49.12-22.25,49-49.43S30.17-9.66,2.99-9.54h0Z"/><path class="cls-4" d="M2.99-9.39c27.1-.12,49.17,21.76,49.29,48.86.12,27.1-21.76,49.17-48.86,49.29-27.1.12-49.17-21.76-49.29-48.86-.12-27.1,21.76-49.17,48.86-49.29h0ZM2.99-9.68c-27.26.12-49.27,22.32-49.15,49.58.12,27.26,22.32,49.27,49.58,49.15,27.26-.12,49.27-22.32,49.15-49.58-.12-27.26-22.32-49.27-49.58-49.15h0Z"/></g><path class="cls-38" d="M7.13,11.18c.19-2.16,1.76-3.91,4.18-4.09,1.05,0,8.05,0,9.53,0,2.16.08,4,2.02,4.06,4.12.04,1.45-.01,8.22-.02,9.75-.04,1.56-1.61,3.58-3.82,3.9-1.25.03-9.59.08-10.25-.01-2.96-.76-3.59-2.87-3.68-4-.09-.58-.02-8.41,0-9.67h0ZM5.17,21.1c.12,3.04,2.86,5.65,6.05,5.74l9.95-.02c3.13-.16,5.65-3.13,5.66-5.92v-9.77c-.06-3.23-2.93-5.84-5.47-5.93l-10.37-.03c-2.68,0-5.56,2.51-5.78,5.48-.06,1.81-.04,8.64-.04,10.46h0ZM12.4,16c.03-2.02,1.63-3.62,3.68-3.6,1.97.03,3.57,1.7,3.53,3.68-.04,1.93-1.59,3.49-3.53,3.53-2.01.04-3.7-1.6-3.68-3.61h0ZM10.45,16c0,3.09,2.52,5.61,5.63,5.56,3.03-.05,5.47-2.46,5.48-5.52,0-3.02-2.47-5.53-5.47-5.58-3.11,0-5.62,2.48-5.64,5.54h0ZM20.48,10.29c.04.69.58,1.25,1.29,1.25.72,0,1.29-.56,1.3-1.25.02-.72-.56-1.35-1.3-1.34-.72.01-1.34.61-1.3,1.35h0Z"/></svg>