<?xml version="1.0" encoding="UTF-8"?><svg id="_圖層_1" xmlns="http://www.w3.org/2000/svg" viewBox="0 0 32 32"><defs><style>.cls-1{fill:#6ea531;}.cls-2{opacity:.9;}.cls-3,.cls-4{fill:#fff;}.cls-4{fill-rule:evenodd;}</style></defs><g class="cls-2"><rect class="cls-1" x="0" y="0" width="32" height="32" rx="16" ry="16"/><path class="cls-3" d="M15.85,9.8s0,0,0,0c-1.8,0-3.5.7-4.78,1.98-.13.13-.2.3-.2.49s.07.36.2.49c.13.13.3.2.49.2h0c.18,0,.36-.07.49-.2,1.02-1.02,2.37-1.58,3.81-1.58,1.44,0,2.79.56,3.81,1.58.26.26.71.26.97,0,.13-.13.2-.3.2-.49s-.07-.36-.2-.49c-1.27-1.28-2.97-1.98-4.78-1.98Z"/><path class="cls-3" d="M15.85,12.45h0c-1.1,0-2.12.43-2.9,1.2-.13.13-.2.3-.2.49s.07.36.2.48c.13.13.3.2.49.2s.36-.07.49-.2c.52-.51,1.2-.8,1.93-.8.73,0,1.41.28,1.93.8.27.27.7.27.97,0,.27-.27.27-.7,0-.97-.77-.77-1.8-1.2-2.9-1.2Z"/><path class="cls-4" d="M15.83,6.73h0c4.22,0,8.78,3.45,8.78,7.68v7.2c0,1.16-1.54,1.14-1.54.02v-7.22c0-3.38-3.87-6.14-7.24-6.14s-6.91,2.76-6.91,6.14v7.23c0,1.12-1.54,1.12-1.54,0v-7.23c0-4.22,4.22-7.68,8.44-7.68h0Z"/><path class="cls-4" d="M7.01,21.52c-1.98-.24-3.51-1.92-3.51-3.96s1.53-3.72,3.51-3.96v7.93h0Z"/><path class="cls-4" d="M24.99,13.68c1.98.24,3.51,1.92,3.51,3.96s-1.53,3.72-3.51,3.96v-7.93h0Z"/><path class="cls-4" d="M15.83,14.97h0c.25,0,.45.2.45.45v9.4c0,.25-.2.45-.45.45h0c-.25,0-.45-.2-.45-.45v-9.4c0-.25.2-.45.45-.45h0Z"/><path class="cls-4" d="M14.09,16.7h0c.25,0,.45.2.45.45v5.95c0,.25-.2.45-.45.45h0c-.25,0-.45-.2-.45-.45v-5.95c0-.25.2-.45.45-.45h0Z"/><path class="cls-4" d="M17.56,16.7h0c.25,0,.45.2.45.45v5.95c0,.25-.2.45-.45.45h0c-.25,0-.45-.2-.45-.45v-5.95c0-.25.2-.45.45-.45h0Z"/><path class="cls-4" d="M12.43,15.88h0c.25,0,.45.2.45.45v7.59c0,.25-.2.45-.45.45h0c-.25,0-.45-.2-.45-.45v-7.59c0-.25.2-.45.45-.45h0Z"/><path class="cls-4" d="M19.23,15.88h0c.25,0,.45.2.45.45v7.59c0,.25-.2.45-.45.45h0c-.25,0-.45-.2-.45-.45v-7.59c0-.25.2-.45.45-.45h0Z"/><path class="cls-4" d="M10.84,17.78h0c.25,0,.45.2.45.45v3.79c0,.25-.2.45-.45.45h0c-.25,0-.45-.2-.45-.45v-3.79c0-.25.2-.45.45-.45h0Z"/><path class="cls-4" d="M20.81,17.78h0c.25,0,.45.2.45.45v3.79c0,.25-.2.45-.45.45h0c-.25,0-.45-.2-.45-.45v-3.79c0-.25.2-.45.45-.45h0Z"/><path class="cls-4" d="M24.61,18.9v2.71c0,1.16-1.54,1.14-1.54.02v-2.37c.52-.11,1.03-.23,1.54-.36h0ZM8.92,19.25v2.37c0,1.12-1.54,1.12-1.54,0v-2.73c.5.13,1.02.25,1.54.36h0Z"/><path class="cls-4" d="M7.01,21.52c-1.98-.24-3.51-1.92-3.51-3.96,0-.04,0-.08,0-.11,1.07.56,2.25,1.02,3.51,1.38v2.7h0Z"/><path class="cls-4" d="M28.5,17.53s0,.08,0,.11c0,2.04-1.53,3.72-3.51,3.96v-2.7c1.26-.36,2.43-.82,3.51-1.38h0Z"/><path class="cls-4" d="M16.28,19.86v4.96c0,.25-.2.45-.45.45h0c-.25,0-.45-.2-.45-.45v-4.96c.15,0,.3,0,.45,0s.3,0,.45,0h0Z"/><path class="cls-4" d="M14.54,19.84v3.26c0,.25-.2.45-.45.45h0c-.25,0-.45-.2-.45-.45v-3.31c.3.02.6.04.9.05h0Z"/><path class="cls-4" d="M18.01,19.79v3.31c0,.25-.2.45-.45.45h0c-.25,0-.45-.2-.45-.45v-3.26c.3-.01.6-.03.9-.05h0Z"/><path class="cls-4" d="M12.88,19.73v4.19c0,.25-.2.45-.45.45h0c-.25,0-.45-.2-.45-.45v-4.29c.3.04.6.07.9.1h0Z"/><path class="cls-4" d="M19.68,19.63v4.29c0,.25-.2.45-.45.45h0c-.25,0-.45-.2-.45-.45v-4.19c.3-.03.6-.06.9-.1h0Z"/><path class="cls-4" d="M11.29,19.54v2.48c0,.25-.2.45-.45.45h0c-.25,0-.45-.2-.45-.45v-2.63c.3.05.6.1.9.15h0Z"/><path class="cls-4" d="M21.26,19.39v2.63c0,.25-.2.45-.45.45h0c-.25,0-.45-.2-.45-.45v-2.48c.3-.04.6-.09.9-.15h0Z"/></g></svg>