<?xml version="1.0" encoding="UTF-8"?><svg id="_圖層_1" xmlns="http://www.w3.org/2000/svg" xmlns:xlink="http://www.w3.org/1999/xlink" viewBox="0 0 32 32"><defs><style>.cls-1{fill:#90c;}.cls-1,.cls-2,.cls-3,.cls-4,.cls-5,.cls-6,.cls-7,.cls-8,.cls-9,.cls-10,.cls-11,.cls-12,.cls-13,.cls-14,.cls-15,.cls-16,.cls-17,.cls-18,.cls-19,.cls-20,.cls-21,.cls-22,.cls-23,.cls-24,.cls-25,.cls-26,.cls-27,.cls-28,.cls-29{fill-rule:evenodd;}.cls-2{fill:#a601bc;}.cls-3{fill:#b304ab;}.cls-4{fill:red;}.cls-5{fill:#9a00ca;}.cls-6{fill:#9c00c9;}.cls-7{fill:#ad03b2;}.cls-8{fill:#9d00c7;}.cls-9{fill:#b103ad;}.cls-10{fill:#a201c0;}.cls-11{fill:#fff;}.cls-12{fill:#af03b0;}.cls-13{fill:#b504a8;}.cls-14{fill:#9f01c5;}.cls-15{fill:#9e00c5;}.cls-30{clip-rule:evenodd;fill:none;}.cls-16{fill:#a401bd;}.cls-17{fill:#9b00c9;}.cls-18{fill:#a001c4;}.cls-19{fill:#a001c3;}.cls-20{fill:#a101c1;}.cls-21{fill:#a702ba;}.cls-22{fill:#a301bf;}.cls-23{fill:#9c00c8;}.cls-24{fill:#9a00cb;}.cls-25{fill:#9b00ca;}.cls-26{fill:#a802b8;}.cls-27{fill:#aa02b7;}.cls-28{fill:#ab02b4;}.cls-31{clip-path:url(#clippath);}.cls-29{fill:#9e00c6;}</style><clipPath id="clippath"><path class="cls-30" d="M-26.18,10.46c2.99-.15,5.61,2.36,5.74,5.34.13,3.2-2.44,5.78-5.6,5.76-2.86-.02-5.39-2.26-5.51-5.36-.11-3.14,2.38-5.59,5.37-5.74h0ZM-20.47,8.97c1.59-.39,2.25,2.16.52,2.53-1.63.35-2.28-2.11-.52-2.53h0ZM-30.91,7.12c-2.81.3-4.14,2.67-3.97,4.95-.01,1.23-.09,7.71.02,8.84.18,1.79,1.31,3.1,2.96,3.71.71.31,1.09.26,1.95.27,2.95.03,5.93.02,8.87-.03,1.3-.02,2.63-1.1,3.16-1.84.83-1.17.83-1.63.82-3.07.01-2.56.02-5.13.04-7.69.23-2.95-1.59-5.43-4.97-5.18-.82,0-8.25-.04-8.87.03h0ZM-20.83,26.81c-2.57.01-7.46.02-9.95.03-3.21-.25-5.85-2.49-6.05-5.75,0-2.59,0-6.54.04-10.44.22-2.88,2.9-5.42,5.77-5.49,2.63,0,7.33.03,10.4.03,2.98.17,5.49,3.21,5.46,5.93,0,3.14,0,6.96,0,9.77-.12,2.98-2.66,5.76-5.67,5.91h0ZM-10,16c0,8.87-7.26,15.88-16,16-7.7.02-15.87-6.04-16-16C-41.77,6.47-34.51.05-25.86,0c7.97-.04,15.81,6.36,15.86,16h0ZM-22.42,16.43c.23-2.11-1.32-3.79-3.13-4-1.96-.24-3.77,1.13-4.02,3.15-.27,2.13,1.32,3.79,3.16,4.01,2.11.25,3.79-1.33,4-3.16h0Z"/></clipPath></defs><g class="cls-31"><path class="cls-13" d="M-38.97,1.06C-17.64.97-.27,18.18-.18,39.51c.09,21.33-17.12,38.69-38.45,38.79-21.33.09-38.69-17.12-38.79-38.45-.09-21.33,17.12-38.69,38.45-38.79h0ZM-38.97.62c-21.57.09-38.98,17.66-38.89,39.22.09,21.57,17.66,38.98,39.22,38.89C-17.06,78.64.35,61.08.26,39.51.16,17.94-17.4.53-38.97.62h0Z"/><path class="cls-3" d="M-38.97.77C-17.48.68.02,18.02.11,39.51c.09,21.49-17.25,38.99-38.74,39.08-21.49.09-38.99-17.25-39.08-38.74C-77.8,18.36-60.46.86-38.97.77h0ZM-38.97.33c-21.73.09-39.27,17.79-39.18,39.52.09,21.73,17.79,39.27,39.52,39.18C-16.9,78.93.64,61.24.55,39.51.45,17.78-17.24.24-38.97.33h0Z"/><path class="cls-9" d="M-38.97.48C-17.32.39.31,17.86.4,39.51c.09,21.65-17.38,39.28-39.03,39.37-21.65.09-39.28-17.38-39.37-39.03C-78.09,18.2-60.62.57-38.97.48h0ZM-38.97.04c-21.89.09-39.56,17.92-39.46,39.81.09,21.89,17.92,39.56,39.81,39.46C-16.74,79.22.93,61.4.84,39.51.74,17.62-17.08-.05-38.97.04h0Z"/><path class="cls-12" d="M-38.97.19C-17.16.09.6,17.7.69,39.51c.09,21.81-17.51,39.57-39.32,39.66-21.81.09-39.57-17.51-39.66-39.32C-78.39,18.04-60.78.28-38.97.19h0ZM-38.97-.25c-22.05.1-39.85,18.05-39.75,40.1.1,22.05,18.05,39.85,40.1,39.75,22.05-.1,39.85-18.05,39.75-40.1C1.03,17.46-16.92-.34-38.97-.25h0Z"/><path class="cls-7" d="M-38.97-.1C-17-.2.89,17.54.98,39.51c.1,21.97-17.64,39.86-39.61,39.95-21.97.1-39.86-17.64-39.95-39.61C-78.68,17.88-60.94,0-38.97-.1h0ZM-38.97-.54c-22.21.1-40.14,18.18-40.04,40.39.1,22.21,18.18,40.14,40.39,40.04,22.21-.1,40.14-18.18,40.04-40.39C1.32,17.29-16.76-.63-38.97-.54h0Z"/><path class="cls-28" d="M-38.97-.39C-16.84-.49,1.18,17.38,1.27,39.51c.1,22.13-17.77,40.15-39.9,40.25-22.13.1-40.15-17.77-40.25-39.9C-78.97,17.72-61.1-.3-38.97-.39h0ZM-38.98-.83c-22.37.1-40.43,18.31-40.33,40.68.1,22.37,18.31,40.43,40.68,40.33,22.37-.1,40.43-18.31,40.33-40.68C1.61,17.13-16.6-.92-38.98-.83h0Z"/><path class="cls-27" d="M-38.98-.68C-16.68-.78,1.47,17.21,1.56,39.5c.1,22.29-17.9,40.44-40.19,40.54-22.29.1-40.44-17.9-40.54-40.19C-79.26,17.56-61.27-.59-38.98-.68h0ZM-38.98-1.12c-22.53.1-40.72,18.44-40.62,40.97s18.44,40.72,40.97,40.62c22.53-.1,40.72-18.44,40.62-40.97C1.9,16.97-16.45-1.22-38.98-1.12h0Z"/><path class="cls-26" d="M-38.98-.97C-16.52-1.07,1.76,17.05,1.85,39.5c.1,22.45-18.02,40.73-40.48,40.83-22.45.1-40.73-18.02-40.83-40.48C-79.55,17.4-61.43-.88-38.98-.97h0ZM-38.98-1.41c-22.69.1-41.01,18.57-40.91,41.27.1,22.69,18.57,41.01,41.27,40.91,22.69-.1,41.01-18.57,40.91-41.27C2.19,16.81-16.29-1.51-38.98-1.41h0Z"/><path class="cls-21" d="M-38.98-1.26C-16.37-1.36,2.04,16.89,2.14,39.5c.1,22.61-18.15,41.02-40.77,41.12-22.61.1-41.02-18.15-41.12-40.77-.1-22.61,18.15-41.02,40.77-41.12h0ZM-38.98-1.7c-22.85.1-41.3,18.71-41.2,41.56.1,22.85,18.71,41.3,41.56,41.2,22.85-.1,41.3-18.71,41.2-41.56C2.48,16.65-16.13-1.8-38.98-1.7h0Z"/><path class="cls-2" d="M-38.98-1.55C-16.21-1.65,2.33,16.73,2.43,39.5c.1,22.77-18.28,41.31-41.05,41.41-22.77.1-41.31-18.28-41.41-41.05-.1-22.77,18.28-41.31,41.05-41.41h0ZM-38.98-1.99c-23.01.1-41.59,18.84-41.49,41.85.1,23.01,18.84,41.59,41.85,41.49,23.01-.1,41.59-18.84,41.49-41.85C2.77,16.49-15.97-2.09-38.98-1.99h0Z"/><path class="cls-16" d="M-38.98-1.84C-16.05-1.94,2.62,16.57,2.72,39.5c.1,22.93-18.41,41.6-41.34,41.7-22.93.1-41.6-18.41-41.7-41.34-.1-22.93,18.41-41.6,41.34-41.7h0ZM-38.98-2.28c-23.17.1-41.88,18.97-41.78,42.14.1,23.17,18.97,41.88,42.14,41.78,23.17-.1,41.88-18.97,41.78-42.14C3.06,16.32-15.81-2.38-38.98-2.28h0Z"/><path class="cls-22" d="M-38.98-2.13C-15.89-2.23,2.91,16.41,3.01,39.5c.1,23.09-18.54,41.9-41.63,42-23.09.1-41.9-18.54-42-41.63-.1-23.09,18.54-41.9,41.63-42h0ZM-38.98-2.57c-23.33.1-42.17,19.1-42.07,42.43.1,23.33,19.1,42.17,42.43,42.07,23.33-.1,42.17-19.1,42.07-42.43C3.35,16.16-15.65-2.67-38.98-2.57h0Z"/><path class="cls-10" d="M-38.98-2.42C-15.73-2.53,3.2,16.24,3.3,39.5c.1,23.25-18.67,42.19-41.92,42.29-23.25.1-42.19-18.67-42.29-41.92-.1-23.25,18.67-42.19,41.92-42.29h0ZM-38.98-2.86c-23.49.1-42.46,19.23-42.36,42.72.1,23.49,19.23,42.46,42.72,42.36,23.49-.1,42.46-19.23,42.36-42.72C3.64,16-15.49-2.96-38.98-2.86h0Z"/><path class="cls-20" d="M-38.98-2.71C-15.57-2.82,3.49,16.08,3.59,39.5c.1,23.41-18.8,42.48-42.21,42.58-23.41.1-42.48-18.8-42.58-42.21-.1-23.41,18.8-42.48,42.21-42.58h0ZM-38.99-3.15c-23.65.1-42.75,19.36-42.64,43.02.1,23.65,19.36,42.75,43.02,42.64,23.65-.1,42.75-19.36,42.64-43.02C3.93,15.84-15.33-3.25-38.99-3.15h0Z"/><path class="cls-19" d="M-38.99-3.01C-15.41-3.11,3.78,15.92,3.89,39.49c.1,23.57-18.93,42.77-42.5,42.87-23.57.1-42.77-18.93-42.87-42.5-.1-23.57,18.93-42.77,42.5-42.87h0ZM-38.99-3.44c-23.81.1-43.04,19.49-42.93,43.31.1,23.81,19.49,43.04,43.31,42.93,23.81-.1,43.04-19.49,42.93-43.31C4.22,15.68-15.17-3.54-38.99-3.44h0Z"/><path class="cls-18" d="M-38.99-3.3C-15.25-3.4,4.07,15.76,4.18,39.49c.1,23.73-19.05,43.06-42.79,43.16-23.73.1-43.06-19.05-43.16-42.79-.1-23.73,19.05-43.06,42.79-43.16h0ZM-38.99-3.73c-23.98.1-43.33,19.62-43.22,43.6.1,23.98,19.62,43.33,43.6,43.22,23.98-.1,43.33-19.62,43.22-43.6C4.51,15.52-15.01-3.84-38.99-3.73h0Z"/><path class="cls-14" d="M-38.99-3.59C-15.09-3.69,4.36,15.6,4.47,39.49c.1,23.9-19.18,43.35-43.08,43.45-23.89.1-43.35-19.18-43.45-43.08-.1-23.9,19.18-43.35,43.08-43.45h0ZM-38.99-4.02c-24.14.1-43.62,19.76-43.51,43.89.1,24.14,19.76,43.62,43.89,43.51,24.14-.1,43.62-19.76,43.51-43.89C4.8,15.35-14.85-4.13-38.99-4.02h0Z"/><path class="cls-15" d="M-38.99-3.88C-14.93-3.98,4.65,15.44,4.76,39.49c.1,24.06-19.31,43.64-43.37,43.75-24.06.1-43.64-19.31-43.75-43.37-.1-24.06,19.31-43.64,43.37-43.75h0ZM-38.99-4.31c-24.3.11-43.91,19.89-43.8,44.18s19.89,43.91,44.18,43.8c24.3-.11,43.91-19.89,43.8-44.18C5.09,15.19-14.69-4.42-38.99-4.31h0Z"/><path class="cls-29" d="M-38.99-4.17C-14.77-4.27,4.94,15.27,5.05,39.49c.11,24.22-19.44,43.93-43.66,44.04-24.22.11-43.93-19.44-44.04-43.66-.11-24.22,19.44-43.93,43.66-44.04h0ZM-38.99-4.6c-24.46.11-44.2,20.02-44.09,44.47.11,24.46,20.02,44.2,44.47,44.09,24.46-.11,44.2-20.02,44.09-44.47C5.38,15.03-14.54-4.71-38.99-4.6h0Z"/><path class="cls-8" d="M-38.99-4.46C-14.62-4.56,5.23,15.11,5.34,39.49c.11,24.38-19.57,44.22-43.95,44.33-24.38.11-44.22-19.57-44.33-43.95-.11-24.38,19.57-44.22,43.95-44.33h0ZM-38.99-4.89c-24.62.11-44.49,20.15-44.38,44.77.11,24.62,20.15,44.49,44.77,44.38,24.62-.11,44.49-20.15,44.38-44.77C5.67,14.87-14.38-5-38.99-4.89h0Z"/><path class="cls-23" d="M-38.99-4.75C-14.46-4.85,5.52,14.95,5.63,39.49c.11,24.54-19.7,44.51-44.23,44.62-24.54.11-44.51-19.7-44.62-44.23-.11-24.54,19.7-44.51,44.23-44.62h0ZM-38.99-5.18c-24.78.11-44.78,20.28-44.67,45.06.11,24.78,20.28,44.78,45.06,44.67,24.78-.11,44.78-20.28,44.67-45.06C5.96,14.71-14.22-5.29-38.99-5.18h0Z"/><path class="cls-23" d="M-38.99-5.04C-14.3-5.14,5.81,14.79,5.92,39.49c.11,24.7-19.83,44.8-44.52,44.91-24.7.11-44.8-19.83-44.91-44.52-.11-24.7,19.83-44.8,44.52-44.91h0ZM-39-5.47c-24.94.11-45.07,20.41-44.96,45.35.11,24.94,20.41,45.07,45.35,44.96,24.94-.11,45.07-20.41,44.96-45.35C6.25,14.55-14.06-5.58-39-5.47h0Z"/><path class="cls-6" d="M-39-5.33C-14.14-5.44,6.1,14.63,6.21,39.48c.11,24.86-19.96,45.1-44.81,45.2-24.86.11-45.1-19.96-45.2-44.81-.11-24.86,19.96-45.1,44.81-45.2h0ZM-39-5.76c-25.1.11-45.36,20.54-45.25,45.64.11,25.1,20.54,45.36,45.64,45.25,25.1-.11,45.36-20.54,45.25-45.64C6.53,14.38-13.9-5.87-39-5.76h0Z"/><path class="cls-17" d="M-39-5.62C-13.98-5.73,6.39,14.47,6.5,39.48c.11,25.02-20.08,45.39-45.1,45.49-25.02.11-45.39-20.08-45.49-45.1-.11-25.02,20.08-45.39,45.1-45.49h0ZM-39-6.05c-25.26.11-45.65,20.67-45.54,45.93.11,25.26,20.67,45.65,45.93,45.54,25.26-.11,45.65-20.67,45.54-45.93C6.82,14.22-13.74-6.16-39-6.05h0Z"/><path class="cls-25" d="M-39-5.91C-13.82-6.02,6.68,14.3,6.79,39.48c.11,25.18-20.21,45.68-45.39,45.79-25.18.11-45.68-20.21-45.79-45.39-.11-25.18,20.21-45.68,45.39-45.79h0ZM-39-6.34c-25.42.11-45.93,20.81-45.82,46.22.11,25.42,20.81,45.93,46.22,45.82,25.42-.11,45.93-20.81,45.82-46.22C7.11,14.06-13.58-6.45-39-6.34h0Z"/><path class="cls-5" d="M-39-6.2C-13.66-6.31,6.97,14.14,7.08,39.48c.11,25.34-20.34,45.97-45.68,46.08-25.34.11-45.97-20.34-46.08-45.68-.11-25.34,20.34-45.97,45.68-46.08h0ZM-39-6.63c-25.58.11-46.22,20.94-46.11,46.52.11,25.58,20.94,46.22,46.52,46.11,25.58-.11,46.22-20.94,46.11-46.52C7.4,13.9-13.42-6.75-39-6.63h0Z"/><path class="cls-24" d="M-39-6.49C-13.5-6.6,7.26,13.98,7.37,39.48c.11,25.5-20.47,46.26-45.97,46.37-25.5.11-46.26-20.47-46.37-45.97-.11-25.5,20.47-46.26,45.97-46.37h0ZM-39-6.93c-25.74.11-46.51,21.07-46.4,46.81.11,25.74,21.07,46.51,46.81,46.4,25.74-.11,46.51-21.07,46.4-46.81C7.69,13.74-13.26-7.04-39-6.93h0Z"/><path class="cls-24" d="M-39-6.78C-13.34-6.89,7.55,13.82,7.66,39.48c.11,25.66-20.6,46.55-46.26,46.66-25.66.11-46.55-20.6-46.66-46.26-.11-25.66,20.6-46.55,46.26-46.66h0ZM-39-7.22c-25.9.11-46.8,21.2-46.69,47.1.11,25.9,21.2,46.8,47.1,46.69,25.9-.11,46.8-21.2,46.69-47.1C7.98,13.58-13.1-7.33-39-7.22h0Z"/><path class="cls-24" d="M-39-7.07C-13.18-7.18,7.84,13.66,7.95,39.48c.11,25.82-20.73,46.84-46.55,46.95-25.82.11-46.84-20.73-46.95-46.55-.11-25.82,20.73-46.84,46.55-46.95h0ZM-39-7.51c-26.06.11-47.09,21.33-46.98,47.39.11,26.06,21.33,47.09,47.39,46.98,26.06-.11,47.09-21.33,46.98-47.39C8.27,13.42-12.94-7.62-39-7.51h0Z"/><path class="cls-24" d="M-39-7.36c25.98-.11,47.13,20.86,47.24,46.84.11,25.98-20.86,47.13-46.84,47.24-25.98.11-47.13-20.86-47.24-46.84-.11-25.98,20.86-47.13,46.84-47.24h0ZM-39.01-7.8c-26.22.11-47.38,21.46-47.27,47.68.11,26.22,21.46,47.38,47.68,47.27,26.22-.11,47.38-21.46,47.27-47.68C8.56,13.25-12.79-7.91-39.01-7.8h0Z"/><path class="cls-1" d="M-39.01-7.65c26.14-.11,47.42,20.99,47.54,47.13.11,26.14-20.99,47.42-47.13,47.54-26.14.11-47.42-20.99-47.54-47.13-.11-26.14,20.99-47.42,47.13-47.54h0ZM-39.01-8.09c-26.38.11-47.67,21.59-47.56,47.97.11,26.38,21.59,47.67,47.97,47.56,26.38-.11,47.67-21.59,47.56-47.97-.11-26.38-21.59-47.67-47.97-47.56h0Z"/><path class="cls-1" d="M-39.01-7.94c26.3-.11,47.71,21.11,47.83,47.41.11,26.3-21.11,47.71-47.41,47.83-26.3.11-47.71-21.11-47.83-47.41-.11-26.3,21.11-47.71,47.41-47.83h0ZM-39.01-8.38c-26.54.12-47.96,21.72-47.85,48.27.12,26.54,21.72,47.96,48.27,47.85,26.54-.12,47.96-21.72,47.85-48.27-.12-26.54-21.72-47.96-48.27-47.85h0Z"/><path class="cls-1" d="M-39.01-8.23c26.46-.11,48,21.24,48.12,47.7.11,26.46-21.24,48-47.7,48.12-26.46.11-48-21.24-48.12-47.7-.11-26.46,21.24-48,47.7-48.12h0ZM-39.01-8.67c-26.7.12-48.25,21.86-48.14,48.56.12,26.7,21.86,48.25,48.56,48.14,26.7-.12,48.25-21.86,48.14-48.56-.12-26.7-21.86-48.25-48.56-48.14h0Z"/><path class="cls-1" d="M-39.01-8.52c26.62-.12,48.3,21.37,48.41,47.99.12,26.62-21.37,48.3-47.99,48.41-26.62.12-48.3-21.37-48.41-47.99-.12-26.62,21.37-48.3,47.99-48.41h0ZM-39.01-8.96c-26.86.12-48.54,21.99-48.43,48.85.12,26.86,21.99,48.54,48.85,48.43,26.86-.12,48.54-21.99,48.43-48.85-.12-26.86-21.99-48.54-48.85-48.43h0Z"/><path class="cls-1" d="M-39.01-8.81c26.78-.12,48.59,21.5,48.7,48.28.12,26.78-21.5,48.59-48.28,48.7-26.78.12-48.59-21.5-48.7-48.28-.12-26.78,21.5-48.59,48.28-48.7h0ZM-39.01-9.25c-27.02.12-48.83,22.12-48.72,49.14.12,27.02,22.12,48.83,49.14,48.72,27.02-.12,48.83-22.12,48.72-49.14-.12-27.02-22.12-48.83-49.14-48.72h0Z"/><path class="cls-1" d="M-39.01-9.1c26.94-.12,48.88,21.63,48.99,48.57.12,26.94-21.63,48.88-48.57,48.99-26.94.12-48.88-21.63-48.99-48.57-.12-26.94,21.63-48.88,48.57-48.99h0ZM-39.01-9.54c-27.18.12-49.12,22.25-49,49.43.12,27.18,22.25,49.12,49.43,49,27.18-.12,49.12-22.25,49-49.43S-11.83-9.66-39.01-9.54h0Z"/><path class="cls-1" d="M-39.01-9.39c27.1-.12,49.17,21.76,49.29,48.86.12,27.1-21.76,49.17-48.86,49.29-27.1.12-49.17-21.76-49.29-48.86-.12-27.1,21.76-49.17,48.86-49.29h0ZM-39.01-9.68c-27.26.12-49.27,22.32-49.15,49.58.12,27.26,22.32,49.27,49.58,49.15,27.26-.12,49.27-22.32,49.15-49.58-.12-27.26-22.32-49.27-49.58-49.15h0Z"/></g><path class="cls-4" d="M23.53,9.22c1.53.31,2.13,1.27,2.4,2.45.42,2.26.36,6.97-.1,8.99-.28,1.25-.89,1.91-2.2,2.13-3.85.59-10.6.41-14.59.11-1.23-.11-2.16-.43-2.69-1.62-.83-1.93-.62-8.04-.21-9.91.29-1.23.98-1.87,2.25-2.1,2.99-.54,11.95-.71,15.14-.05h0ZM32,16c0,8.83-7.11,15.91-16,16C6.82,31.85-.03,24.59,0,16-.09,7.23,7.33-.1,16,0c8.81-.09,16,7.28,16,16h0ZM13.96,19.12c.19-.11,5.03-2.96,5.37-3.17-.53-.29-4.53-2.47-5.37-2.91,0,1.25,0,4.5,0,6.08h0Z"/><path class="cls-11" d="M13.96,19.12c0-1.94,0-4.19,0-6.08l5.37,2.92c-.14.08-5.29,3.12-5.37,3.17h0ZM8.39,9.27c-1.19.2-2.01.89-2.25,2.1-.43,2.15-.63,7.83.2,9.91.46,1.17,1.5,1.5,2.71,1.63,3.65.29,10.91.5,14.58-.12,1.21-.17,1.96-.92,2.19-2.12.45-2.39.55-6.51.09-8.98-.31-1.52-1.15-2.21-2.39-2.47-2.98-.6-11.82-.58-15.14.05h0Z"/></svg>